<?xml version="1.0" standalone="no"?>
<!DOCTYPE svg PUBLIC "-//W3C//DTD SVG 1.1//EN" "http://www.w3.org/Graphics/SVG/1.1/DTD/svg11.dtd" >
<svg xmlns="http://www.w3.org/2000/svg">
<metadata>Generated by IcoMoon</metadata>
<defs>
<font id="icomoon" horiz-adv-x="1024">
<font-face units-per-em="1024" ascent="960" descent="-64" />
<missing-glyph horiz-adv-x="1024" />
<glyph unicode="&#x20;" horiz-adv-x="512" d="" />
<glyph unicode="&#xe900;" glyph-name="weaImg17" horiz-adv-x="866" d="M78.769 229.415v0c0 9.846 5.908 17.723 15.754 17.723h116.185c7.877 0 15.754-5.908 15.754-15.754v-1.969c0-7.877-5.908-15.754-15.754-15.754h-116.185c-7.877 0-15.754 7.877-15.754 15.754zM116.185 166.4v0c-7.877 5.908-11.815 13.785-7.877 21.662l59.077 100.431c3.938 7.877 13.785 9.846 21.662 5.908h1.969c7.877-3.938 9.846-13.785 5.908-21.662l-59.077-100.431c-3.938-7.877-13.785-11.815-21.662-5.908zM191.015 166.4v0c-7.877-5.908-17.723-1.969-21.662 3.938l-59.077 100.431c-3.938 7.877-1.969 15.754 5.908 21.662h1.969c7.877 3.938 15.754 1.969 21.662-5.908l59.077-100.431c1.969-5.908-1.969-15.754-7.877-19.692zM78.769 20.677v0c0 9.846 5.908 17.723 15.754 17.723h116.185c7.877 0 15.754-5.908 15.754-15.754v-1.969c0-7.877-5.908-15.754-15.754-15.754h-116.185c-7.877 0-15.754 5.908-15.754 15.754zM116.185-42.338v0c-7.877 5.908-11.815 13.785-7.877 21.662l59.077 100.431c3.938 7.877 13.785 9.846 21.662 5.908h1.969c7.877-3.938 9.846-13.785 5.908-21.662l-59.077-100.431c-3.938-7.877-13.785-11.815-21.662-5.908zM191.015-42.338v0c-7.877-5.908-17.723-1.969-21.662 3.938l-59.077 100.431c-3.938 7.877-1.969 15.754 5.908 21.662h1.969c7.877 3.938 15.754 1.969 21.662-5.908l59.077-100.431c1.969-5.908-1.969-15.754-7.877-19.692zM265.846 229.415v0c0 9.846 5.908 17.723 15.754 17.723h116.185c7.877 0 15.754-5.908 15.754-15.754v-1.969c0-7.877-5.908-15.754-15.754-15.754h-116.185c-7.877 0-15.754 7.877-15.754 15.754zM303.262 166.4v0c-7.877 5.908-11.815 13.785-7.877 21.662l59.077 100.431c3.938 7.877 13.785 9.846 21.662 5.908h1.969c7.877-3.938 9.846-13.785 5.908-21.662l-59.077-100.431c-3.938-7.877-13.785-11.815-21.662-5.908zM378.092 166.4v0c-7.877-5.908-17.723-1.969-21.662 3.938l-59.077 100.431c-3.938 7.877-1.969 15.754 5.908 21.662h1.969c7.877 3.938 15.754 1.969 21.662-5.908l59.077-100.431c1.969-5.908-1.969-15.754-7.877-19.692zM265.846 20.677v0c0 9.846 5.908 17.723 15.754 17.723h116.185c7.877 0 15.754-5.908 15.754-15.754v-1.969c0-7.877-5.908-15.754-15.754-15.754h-116.185c-7.877 0-15.754 5.908-15.754 15.754zM303.262-42.338v0c-7.877 5.908-11.815 13.785-7.877 21.662l59.077 100.431c3.938 7.877 13.785 9.846 21.662 5.908h1.969c7.877-3.938 9.846-13.785 5.908-21.662l-59.077-100.431c-3.938-7.877-13.785-11.815-21.662-5.908zM378.092-42.338v0c-7.877-5.908-17.723-1.969-21.662 3.938l-59.077 100.431c-3.938 7.877-1.969 15.754 5.908 21.662h1.969c7.877 3.938 15.754 1.969 21.662-5.908l59.077-100.431c1.969-5.908-1.969-15.754-7.877-19.692zM450.954 229.415v0c0 9.846 5.908 17.723 15.754 17.723h116.185c7.877 0 15.754-5.908 15.754-15.754v-1.969c0-7.877-5.908-15.754-15.754-15.754h-116.185c-9.846 0-15.754 7.877-15.754 15.754zM488.369 166.4v0c-7.877 5.908-11.815 13.785-7.877 21.662l59.077 100.431c3.938 7.877 13.785 9.846 21.662 5.908h1.969c7.877-3.938 9.846-13.785 5.908-21.662l-59.077-100.431c-5.908-7.877-13.785-11.815-21.662-5.908zM561.231 166.4v0c-7.877-5.908-17.723-1.969-21.662 3.938l-59.077 100.431c-3.938 7.877-1.969 15.754 5.908 21.662h1.969c7.877 3.938 15.754 1.969 21.662-5.908l59.077-100.431c1.969-5.908 0-15.754-7.877-19.692zM450.954 20.677v0c0 9.846 5.908 17.723 15.754 17.723h116.185c7.877 0 15.754-5.908 15.754-15.754v-1.969c0-7.877-5.908-15.754-15.754-15.754h-116.185c-9.846 0-15.754 5.908-15.754 15.754zM488.369-42.338v0c-7.877 5.908-11.815 13.785-7.877 21.662l59.077 100.431c3.938 7.877 13.785 9.846 21.662 5.908h1.969c7.877-3.938 9.846-13.785 5.908-21.662l-59.077-100.431c-5.908-7.877-13.785-11.815-21.662-5.908zM561.231-42.338v0c-7.877-5.908-17.723-1.969-21.662 3.938l-59.077 100.431c-3.938 7.877-1.969 15.754 5.908 21.662h1.969c7.877 3.938 15.754 1.969 21.662-5.908l59.077-100.431c1.969-5.908 0-15.754-7.877-19.692zM636.062 227.446v0c0 9.846 5.908 17.723 15.754 17.723h116.185c7.877 0 15.754-5.908 15.754-15.754v-1.969c0-7.877-5.908-15.754-15.754-15.754h-116.185c-7.877 0-15.754 5.908-15.754 15.754zM673.477 162.462v0c-7.877 5.908-11.815 13.785-7.877 21.662l59.077 100.431c3.938 7.877 13.785 9.846 21.662 5.908h1.969c7.877-3.938 9.846-13.785 5.908-21.662l-59.077-100.431c-3.938-5.908-13.785-9.846-21.662-5.908zM748.308 164.431v0c-7.877-5.908-17.723-1.969-21.662 3.938l-59.077 100.431c-3.938 7.877-1.969 15.754 5.908 21.662h1.969c7.877 3.938 15.754 1.969 21.662-5.908l59.077-100.431c1.969-5.908-1.969-15.754-7.877-19.692zM636.062 18.708v0c0 9.846 5.908 17.723 15.754 17.723h116.185c7.877 0 15.754-5.908 15.754-15.754v-1.969c0-7.877-5.908-15.754-15.754-15.754h-116.185c-7.877 0-15.754 5.908-15.754 15.754zM673.477-46.277v0c-7.877 5.908-11.815 13.785-7.877 21.662l59.077 100.431c3.938 7.877 13.785 9.846 21.662 5.908h1.969c7.877-3.938 9.846-13.785 5.908-21.662l-59.077-100.431c-3.938-5.908-13.785-9.846-21.662-5.908zM748.308-44.308v0c-7.877-5.908-17.723-1.969-21.662 3.938l-59.077 100.431c-3.938 7.877-1.969 15.754 5.908 21.662h1.969c7.877 3.938 15.754 1.969 21.662-5.908l59.077-100.431c1.969-5.908-1.969-15.754-7.877-19.692zM671.508 723.692c0-121.809-98.745-220.554-220.554-220.554s-220.554 98.745-220.554 220.554c0 121.809 98.745 220.554 220.554 220.554s220.554-98.745 220.554-220.554zM452.923 562.215c0-121.809-98.745-220.554-220.554-220.554s-220.554 98.745-220.554 220.554c0 121.809 98.745 220.554 220.554 220.554s220.554-98.745 220.554-220.554zM848.738 562.215c0-121.809-98.745-220.554-220.554-220.554s-220.554 98.745-220.554 220.554c0 121.809 98.745 220.554 220.554 220.554s220.554-98.745 220.554-220.554zM228.431 491.323h389.908v-151.631h-389.908v151.631z" />
<glyph unicode="&#xe901;" glyph-name="weaImg10" horiz-adv-x="866" d="M208.738 209.723c0-29.538-23.631-51.2-51.2-51.2s-51.2 23.631-51.2 51.2c0 27.569 51.2 90.585 51.2 90.585s51.2-61.046 51.2-90.585zM393.846 209.723c0-29.538-23.631-51.2-51.2-51.2-29.538 0-51.2 23.631-51.2 51.2s51.2 90.585 51.2 90.585c0 0 51.2-61.046 51.2-90.585zM578.954 209.723c0-29.538-23.631-51.2-51.2-51.2-29.538 0-51.2 23.631-51.2 51.2s51.2 90.585 51.2 90.585c0 0 51.2-61.046 51.2-90.585zM393.846 0.985c0-29.538-23.631-51.2-51.2-51.2-29.538 0-51.2 23.631-51.2 51.2 0 29.538 51.2 90.585 51.2 90.585s51.2-61.046 51.2-90.585zM580.923 0.985c0-29.538-23.631-51.2-51.2-51.2-29.538 0-51.2 23.631-51.2 51.2 0 29.538 51.2 90.585 51.2 90.585s51.2-61.046 51.2-90.585zM766.031 209.723c0-29.538-23.631-51.2-51.2-51.2s-51.2 23.631-51.2 51.2c0 27.569 51.2 90.585 51.2 90.585s51.2-61.046 51.2-90.585zM766.031 0.985c0-29.538-23.631-51.2-51.2-51.2s-51.2 23.631-51.2 51.2c0 29.538 51.2 90.585 51.2 90.585s51.2-61.046 51.2-90.585zM208.738 0.985c0-29.538-23.631-51.2-51.2-51.2s-51.2 23.631-51.2 51.2c0 29.538 51.2 90.585 51.2 90.585s51.2-61.046 51.2-90.585zM675.446 721.723c0-121.809-98.745-220.554-220.554-220.554s-220.554 98.745-220.554 220.554c0 121.809 98.745 220.554 220.554 220.554s220.554-98.745 220.554-220.554zM454.892 558.277c0-121.809-98.745-220.554-220.554-220.554s-220.554 98.745-220.554 220.554c0 121.809 98.745 220.554 220.554 220.554s220.554-98.745 220.554-220.554zM850.708 558.277c0-121.809-98.745-220.554-220.554-220.554s-220.554 98.745-220.554 220.554c0 121.809 98.745 220.554 220.554 220.554s220.554-98.745 220.554-220.554zM232.369 489.354h389.908v-151.631h-389.908v151.631z" />
<glyph unicode="&#xe902;" glyph-name="weaImg24" horiz-adv-x="883" d="M180.706 207.059c0-30.118-24.094-52.204-52.204-52.204-30.118 0-52.204 24.094-52.204 52.204 0 30.118 52.204 92.361 52.204 92.361s52.204-62.243 52.204-92.361zM343.341 207.059c0-30.118-24.094-52.204-52.204-52.204s-52.204 24.094-52.204 52.204c0 30.118 52.204 92.361 52.204 92.361s52.204-62.243 52.204-92.361zM503.969 207.059c0-30.118-24.094-52.204-52.204-52.204-30.118 0-52.204 24.094-52.204 52.204 0 30.118 52.204 92.361 52.204 92.361s52.204-62.243 52.204-92.361zM343.341-5.773c0-30.118-24.094-52.204-52.204-52.204-30.118 0-52.204 24.094-52.204 52.204 0 30.118 52.204 92.361 52.204 92.361s52.204-64.251 52.204-92.361zM505.976-5.773c0-30.118-24.094-52.204-52.204-52.204s-52.204 24.094-52.204 52.204c0 30.118 52.204 92.361 52.204 92.361s52.204-64.251 52.204-92.361zM666.604 207.059c0-30.118-24.094-52.204-52.204-52.204-30.118 0-52.204 24.094-52.204 52.204 0 30.118 52.204 92.361 52.204 92.361s52.204-62.243 52.204-92.361zM666.604-5.773c0-30.118-24.094-52.204-52.204-52.204s-52.204 24.094-52.204 52.204c0 30.118 52.204 92.361 52.204 92.361s52.204-64.251 52.204-92.361zM829.239 207.059c0-30.118-24.094-52.204-52.204-52.204-30.118 0-52.204 24.094-52.204 52.204 0 30.118 52.204 92.361 52.204 92.361s52.204-62.243 52.204-92.361zM829.239-5.773c0-30.118-24.094-52.204-52.204-52.204-30.118 0-52.204 24.094-52.204 52.204 0 30.118 52.204 92.361 52.204 92.361s52.204-64.251 52.204-92.361zM182.714-5.773c0-30.118-24.094-52.204-52.204-52.204-30.118 0-52.204 24.094-52.204 52.204 0 30.118 52.204 92.361 52.204 92.361s52.204-64.251 52.204-92.361zM686.682 729.098c0-124.197-100.682-224.878-224.878-224.878s-224.878 100.682-224.878 224.878c0 124.197 100.682 224.878 224.878 224.878s224.878-100.682 224.878-224.878zM461.804 562.447c0-124.197-100.682-224.878-224.878-224.878s-224.878 100.682-224.878 224.878c0 124.197 100.682 224.878 224.878 224.878s224.878-100.682 224.878-224.878zM865.38 562.447c0-124.197-100.682-224.878-224.878-224.878s-224.878 100.682-224.878 224.878c0 124.197 100.682 224.878 224.878 224.878s224.878-100.682 224.878-224.878zM232.91 492.173h397.553v-154.604h-397.553v154.604z" />
<glyph unicode="&#xe903;" glyph-name="weaImg11" horiz-adv-x="863" d="M172.675 213.082c0-30.118-24.094-52.204-52.204-52.204s-52.204 24.094-52.204 52.204c0 28.11 52.204 92.361 52.204 92.361s52.204-62.243 52.204-92.361zM335.31 213.082c0-30.118-24.094-52.204-52.204-52.204-30.118 0-52.204 24.094-52.204 52.204s52.204 92.361 52.204 92.361c0 0 52.204-62.243 52.204-92.361zM495.937 213.082c0-30.118-24.094-52.204-52.204-52.204s-52.204 24.094-52.204 52.204c0 28.11 52.204 92.361 52.204 92.361s52.204-62.243 52.204-92.361zM335.31 0.251c0-30.118-24.094-52.204-52.204-52.204-30.118 0-52.204 24.094-52.204 52.204 0 30.118 52.204 92.361 52.204 92.361s52.204-62.243 52.204-92.361zM497.945 0.251c0-30.118-24.094-52.204-52.204-52.204-30.118 0-52.204 24.094-52.204 52.204 0 30.118 52.204 92.361 52.204 92.361s52.204-62.243 52.204-92.361zM658.573 213.082c0-30.118-24.094-52.204-52.204-52.204-30.118 0-52.204 24.094-52.204 52.204s52.204 92.361 52.204 92.361c0 0 52.204-62.243 52.204-92.361zM658.573 0.251c0-30.118-24.094-52.204-52.204-52.204-30.118 0-52.204 24.094-52.204 52.204 0 30.118 52.204 92.361 52.204 92.361s52.204-62.243 52.204-92.361zM821.208 213.082c0-30.118-24.094-52.204-52.204-52.204s-52.204 24.094-52.204 52.204c0 28.11 52.204 92.361 52.204 92.361s52.204-62.243 52.204-92.361zM821.208 0.251c0-30.118-24.094-52.204-52.204-52.204s-52.204 24.094-52.204 52.204c0 30.118 52.204 92.361 52.204 92.361s52.204-62.243 52.204-92.361zM174.682 0.251c0-30.118-24.094-52.204-52.204-52.204s-52.204 24.094-52.204 52.204c0 30.118 52.204 92.361 52.204 92.361s52.204-62.243 52.204-92.361zM678.651 735.122c0-124.197-100.682-224.878-224.878-224.878s-224.878 100.682-224.878 224.878c0 124.197 100.682 224.878 224.878 224.878s224.878-100.682 224.878-224.878zM453.773 568.471c0-124.197-100.682-224.878-224.878-224.878s-224.878 100.682-224.878 224.878c0 124.197 100.682 224.878 224.878 224.878s224.878-100.682 224.878-224.878zM857.349 568.471c0-124.197-100.682-224.878-224.878-224.878s-224.878 100.682-224.878 224.878c0 124.197 100.682 224.878 224.878 224.878s224.878-100.682 224.878-224.878zM224.878 498.196h397.553v-154.604h-397.553v154.604z" />
<glyph unicode="&#xe904;" glyph-name="weaImg25" horiz-adv-x="904" d="M122.478 205.051c0-30.118-24.094-52.204-52.204-52.204s-52.204 24.094-52.204 52.204c0 30.118 52.204 92.361 52.204 92.361s52.204-64.251 52.204-92.361zM277.082 205.051c0-30.118-24.094-52.204-52.204-52.204-30.118 0-52.204 24.094-52.204 52.204 0 30.118 52.204 92.361 52.204 92.361s52.204-64.251 52.204-92.361zM433.694 205.051c0-30.118-24.094-52.204-52.204-52.204s-52.204 24.094-52.204 52.204c0 30.118 52.204 92.361 52.204 92.361s52.204-64.251 52.204-92.361zM279.090-7.78c0-30.118-24.094-52.204-52.204-52.204-30.118 0-52.204 24.094-52.204 52.204 0 30.118 52.204 92.361 52.204 92.361s52.204-64.251 52.204-92.361zM433.694-7.78c0-30.118-24.094-52.204-52.204-52.204-30.118 0-52.204 24.094-52.204 52.204 0 30.118 52.204 92.361 52.204 92.361s52.204-64.251 52.204-92.361zM588.298 205.051c0-30.118-24.094-52.204-52.204-52.204-30.118 0-52.204 24.094-52.204 52.204 0 30.118 52.204 92.361 52.204 92.361s52.204-64.251 52.204-92.361zM590.306-7.78c0-30.118-24.094-52.204-52.204-52.204s-52.204 24.094-52.204 52.204c0 30.118 52.204 92.361 52.204 92.361s52.204-64.251 52.204-92.361zM744.91 205.051c0-30.118-24.094-52.204-52.204-52.204s-52.204 24.094-52.204 52.204c0 30.118 52.204 92.361 52.204 92.361s52.204-64.251 52.204-92.361zM744.91-7.78c0-30.118-24.094-52.204-52.204-52.204-30.118 0-52.204 24.094-52.204 52.204 0 30.118 52.204 92.361 52.204 92.361s52.204-64.251 52.204-92.361zM899.514 205.051c0-30.118-24.094-52.204-52.204-52.204-30.118 0-52.204 24.094-52.204 52.204 0 30.118 52.204 92.361 52.204 92.361s52.204-64.251 52.204-92.361zM899.514-7.78c0-30.118-24.094-52.204-52.204-52.204s-52.204 24.094-52.204 52.204c0 30.118 52.204 92.361 52.204 92.361s52.204-64.251 52.204-92.361zM122.478-7.78c0-30.118-24.094-52.204-52.204-52.204s-52.204 24.094-52.204 52.204c0 30.118 52.204 92.361 52.204 92.361s52.204-64.251 52.204-92.361zM702.745 725.082c0-124.197-100.682-224.878-224.878-224.878s-224.878 100.682-224.878 224.878c0 124.197 100.682 224.878 224.878 224.878s224.878-100.682 224.878-224.878zM477.867 560.439c0-124.197-100.682-224.878-224.878-224.878s-224.878 100.682-224.878 224.878c0 124.197 100.682 224.878 224.878 224.878s224.878-100.682 224.878-224.878zM881.443 560.439c0-124.197-100.682-224.878-224.878-224.878s-224.878 100.682-224.878 224.878c0 124.197 100.682 224.878 224.878 224.878s224.878-100.682 224.878-224.878zM250.98 488.157h397.553v-154.604h-397.553v154.604z" />
<glyph unicode="&#xe905;" glyph-name="weaImg16" horiz-adv-x="863" d="M142.557 215.090v0c0 10.039 6.024 18.071 16.063 18.071h118.463c8.031 0 16.063-6.024 16.063-16.063v-2.008c0-8.031-6.024-16.063-16.063-16.063h-118.463c-8.031 0-16.063 8.031-16.063 16.063zM182.714 150.839v0c-8.031 6.024-12.047 14.055-8.031 22.086l60.235 102.4c4.016 8.031 14.055 10.039 22.086 6.024h2.008c8.031-4.016 10.039-14.055 6.024-22.086l-60.235-102.4c-6.024-8.031-16.063-12.047-22.086-6.024zM257.004 150.839v0c-8.031-6.024-18.071-2.008-22.086 4.016l-60.235 102.4c-4.016 8.031-2.008 16.063 6.024 22.086h2.008c8.031 4.016 16.063 2.008 22.086-6.024l60.235-102.4c2.008-6.024 0-16.063-8.031-20.078zM142.557 2.259v0c0 10.039 6.024 18.071 16.063 18.071h118.463c8.031 0 16.063-6.024 16.063-16.063v-2.008c0-8.031-6.024-16.063-16.063-16.063h-118.463c-8.031 0-16.063 6.024-16.063 16.063zM182.714-61.992v0c-8.031 6.024-12.047 14.055-8.031 22.086l60.235 102.4c4.016 8.031 14.055 10.039 22.086 6.024h2.008c8.031-4.016 10.039-14.055 6.024-22.086l-60.235-102.4c-6.024-8.031-16.063-12.047-22.086-6.024zM257.004-61.992v0c-8.031-6.024-18.071-2.008-22.086 4.016l-60.235 102.4c-4.016 8.031-2.008 16.063 6.024 22.086h2.008c8.031 4.016 16.063 2.008 22.086-6.024l60.235-102.4c2.008-6.024 0-16.063-8.031-20.078zM361.412 215.090v0c0 10.039 6.024 18.071 16.063 18.071h118.463c8.031 0 16.063-6.024 16.063-16.063v-2.008c0-8.031-6.024-16.063-16.063-16.063h-118.463c-10.039 0-16.063 8.031-16.063 16.063zM399.561 150.839v0c-8.031 6.024-12.047 14.055-8.031 22.086l60.235 102.4c4.016 8.031 14.055 10.039 22.086 6.024h2.008c8.031-4.016 10.039-14.055 6.024-22.086l-60.235-102.4c-6.024-8.031-16.063-12.047-22.086-6.024zM473.851 150.839v0c-8.031-6.024-18.071-2.008-22.086 4.016l-60.235 102.4c-4.016 8.031-2.008 16.063 6.024 22.086h2.008c8.031 4.016 16.063 2.008 22.086-6.024l60.235-102.4c2.008-6.024 0-16.063-8.031-20.078zM361.412 2.259v0c0 10.039 6.024 18.071 16.063 18.071h118.463c8.031 0 16.063-6.024 16.063-16.063v-2.008c0-8.031-6.024-16.063-16.063-16.063h-118.463c-10.039 0-16.063 6.024-16.063 16.063zM399.561-61.992v0c-8.031 6.024-12.047 14.055-8.031 22.086l60.235 102.4c4.016 8.031 14.055 10.039 22.086 6.024h2.008c8.031-4.016 10.039-14.055 6.024-22.086l-60.235-102.4c-6.024-8.031-16.063-12.047-22.086-6.024zM473.851-61.992v0c-8.031-6.024-18.071-2.008-22.086 4.016l-60.235 102.4c-4.016 8.031-2.008 16.063 6.024 22.086h2.008c8.031 4.016 16.063 2.008 22.086-6.024l60.235-102.4c2.008-6.024 0-16.063-8.031-20.078zM578.259 215.090v0c0 10.039 6.024 18.071 16.063 18.071h118.463c8.031 0 16.063-6.024 16.063-16.063v-2.008c0-8.031-6.024-16.063-16.063-16.063h-118.463c-10.039 0-16.063 8.031-16.063 16.063zM616.408 150.839v0c-8.031 6.024-12.047 14.055-8.031 22.086l60.235 102.4c4.016 8.031 14.055 10.039 22.086 6.024h2.008c8.031-4.016 10.039-14.055 6.024-22.086l-60.235-102.4c-6.024-8.031-14.055-12.047-22.086-6.024zM690.698 150.839v0c-8.031-6.024-18.071-2.008-22.086 4.016l-60.235 102.4c-4.016 8.031-2.008 16.063 6.024 22.086h2.008c8.031 4.016 16.063 2.008 22.086-6.024l60.235-102.4c2.008-6.024 0-16.063-8.031-20.078zM578.259 2.259v0c0 10.039 6.024 18.071 16.063 18.071h118.463c8.031 0 16.063-6.024 16.063-16.063v-2.008c0-8.031-6.024-16.063-16.063-16.063h-118.463c-10.039 0-16.063 6.024-16.063 16.063zM616.408-61.992v0c-8.031 6.024-12.047 14.055-8.031 22.086l60.235 102.4c4.016 8.031 14.055 10.039 22.086 6.024h2.008c8.031-4.016 10.039-14.055 6.024-22.086l-60.235-102.4c-6.024-8.031-14.055-12.047-22.086-6.024zM690.698-61.992v0c-8.031-6.024-18.071-2.008-22.086 4.016l-60.235 102.4c-4.016 8.031-2.008 16.063 6.024 22.086h2.008c8.031 4.016 16.063 2.008 22.086-6.024l60.235-102.4c2.008-6.024 0-16.063-8.031-20.078zM682.667 717.051c0-124.197-100.682-224.878-224.878-224.878s-224.878 100.682-224.878 224.878c0 124.197 100.682 224.878 224.878 224.878s224.878-100.682 224.878-224.878zM457.788 550.4c0-124.197-100.682-224.878-224.878-224.878s-224.878 100.682-224.878 224.878c0 124.197 100.682 224.878 224.878 224.878s224.878-100.682 224.878-224.878zM861.365 550.4c0-124.197-100.682-224.878-224.878-224.878s-224.878 100.682-224.878 224.878c0 124.197 100.682 224.878 224.878 224.878s224.878-100.682 224.878-224.878zM228.894 480.125h397.553v-154.604h-397.553v154.604z" />
<glyph unicode="&#xe906;" glyph-name="weaImg28" horiz-adv-x="847" d="M78.769 227.446v0c0 9.846 5.908 17.723 15.754 17.723h116.185c7.877 0 15.754-5.908 15.754-15.754v-1.969c0-7.877-5.908-15.754-15.754-15.754h-116.185c-9.846 1.969-15.754 7.877-15.754 15.754zM116.185 164.431v0c-7.877 5.908-11.815 13.785-7.877 21.662l59.077 100.431c3.938 7.877 13.785 9.846 21.662 5.908h1.969c7.877-3.938 9.846-13.785 5.908-21.662l-59.077-100.431c-5.908-7.877-15.754-9.846-21.662-5.908zM189.046 166.4v0c-7.877-5.908-17.723-1.969-21.662 3.938l-59.077 100.431c-3.938 7.877-1.969 15.754 5.908 21.662h1.969c7.877 3.938 15.754 1.969 21.662-5.908l59.077-100.431c1.969-5.908 0-15.754-7.877-19.692zM78.769 18.708v0c0 9.846 5.908 17.723 15.754 17.723h116.185c7.877 0 15.754-5.908 15.754-15.754v-1.969c0-7.877-5.908-15.754-15.754-15.754h-116.185c-9.846 1.969-15.754 7.877-15.754 15.754zM116.185-44.308v0c-7.877 5.908-11.815 13.785-7.877 21.662l59.077 100.431c3.938 7.877 13.785 9.846 21.662 5.908h1.969c7.877-3.938 9.846-13.785 5.908-21.662l-59.077-100.431c-5.908-7.877-15.754-9.846-21.662-5.908zM189.046-42.338v0c-7.877-5.908-17.723-1.969-21.662 3.938l-59.077 100.431c-3.938 7.877-1.969 15.754 5.908 21.662h1.969c7.877 3.938 15.754 1.969 21.662-5.908l59.077-100.431c1.969-5.908 0-15.754-7.877-19.692zM265.846 227.446v0c0 9.846 5.908 17.723 15.754 17.723h116.185c7.877 0 15.754-5.908 15.754-15.754v-1.969c0-7.877-5.908-15.754-15.754-15.754h-116.185c-9.846 1.969-15.754 7.877-15.754 15.754zM303.262 164.431v0c-7.877 5.908-11.815 13.785-7.877 21.662l59.077 100.431c3.938 7.877 13.785 9.846 21.662 5.908h1.969c7.877-3.938 9.846-13.785 5.908-21.662l-59.077-100.431c-5.908-7.877-15.754-9.846-21.662-5.908zM376.123 166.4v0c-7.877-5.908-17.723-1.969-21.662 3.938l-59.077 100.431c-3.938 7.877-1.969 15.754 5.908 21.662h1.969c7.877 3.938 15.754 1.969 21.662-5.908l59.077-100.431c1.969-5.908 0-15.754-7.877-19.692zM265.846 18.708v0c0 9.846 5.908 17.723 15.754 17.723h116.185c7.877 0 15.754-5.908 15.754-15.754v-1.969c0-7.877-5.908-15.754-15.754-15.754h-116.185c-9.846 1.969-15.754 7.877-15.754 15.754zM303.262-44.308v0c-7.877 5.908-11.815 13.785-7.877 21.662l59.077 100.431c3.938 7.877 13.785 9.846 21.662 5.908h1.969c7.877-3.938 9.846-13.785 5.908-21.662l-59.077-100.431c-5.908-7.877-15.754-9.846-21.662-5.908zM376.123-42.338v0c-7.877-5.908-17.723-1.969-21.662 3.938l-59.077 100.431c-3.938 7.877-1.969 15.754 5.908 21.662h1.969c7.877 3.938 15.754 1.969 21.662-5.908l59.077-100.431c1.969-5.908 0-15.754-7.877-19.692zM448.985 227.446v0c0 9.846 5.908 17.723 15.754 17.723h116.185c7.877 0 15.754-5.908 15.754-15.754v-1.969c0-7.877-5.908-15.754-15.754-15.754h-116.185c-7.877 1.969-15.754 7.877-15.754 15.754zM486.4 164.431v0c-7.877 5.908-11.815 13.785-7.877 21.662l59.077 100.431c3.938 7.877 13.785 9.846 21.662 5.908h1.969c7.877-3.938 9.846-13.785 5.908-21.662l-59.077-100.431c-3.938-7.877-13.785-9.846-21.662-5.908zM561.231 166.4v0c-7.877-5.908-17.723-1.969-21.662 3.938l-59.077 100.431c-3.938 7.877-1.969 15.754 5.908 21.662h1.969c7.877 3.938 15.754 1.969 21.662-5.908l59.077-100.431c1.969-5.908 0-15.754-7.877-19.692zM448.985 18.708v0c0 9.846 5.908 17.723 15.754 17.723h116.185c7.877 0 15.754-5.908 15.754-15.754v-1.969c0-7.877-5.908-15.754-15.754-15.754h-116.185c-7.877 1.969-15.754 7.877-15.754 15.754zM486.4-44.308v0c-7.877 5.908-11.815 13.785-7.877 21.662l59.077 100.431c3.938 7.877 13.785 9.846 21.662 5.908h1.969c7.877-3.938 9.846-13.785 5.908-21.662l-59.077-100.431c-3.938-7.877-13.785-9.846-21.662-5.908zM561.231-42.338v0c-7.877-5.908-17.723-1.969-21.662 3.938l-59.077 100.431c-3.938 7.877-1.969 15.754 5.908 21.662h1.969c7.877 3.938 15.754 1.969 21.662-5.908l59.077-100.431c1.969-5.908 0-15.754-7.877-19.692zM638.031 227.446v0c0 9.846 5.908 17.723 15.754 17.723h116.185c7.877 0 15.754-5.908 15.754-15.754v-1.969c0-7.877-5.908-15.754-15.754-15.754h-116.185c-9.846 0-15.754 7.877-15.754 15.754zM675.446 164.431v0c-7.877 5.908-11.815 13.785-7.877 21.662l59.077 100.431c3.938 7.877 13.785 9.846 21.662 5.908h1.969c7.877-3.938 9.846-13.785 5.908-21.662l-59.077-100.431c-5.908-7.877-13.785-9.846-21.662-5.908zM748.308 164.431v0c-7.877-5.908-17.723-1.969-21.662 3.938l-59.077 100.431c-3.938 7.877-1.969 15.754 5.908 21.662h1.969c7.877 3.938 15.754 1.969 21.662-5.908l59.077-100.431c1.969-5.908 0-15.754-7.877-19.692zM638.031 18.708v0c0 9.846 5.908 17.723 15.754 17.723h116.185c7.877 0 15.754-5.908 15.754-15.754v-1.969c0-7.877-5.908-15.754-15.754-15.754h-116.185c-9.846 0-15.754 5.908-15.754 15.754zM675.446-44.308v0c-7.877 5.908-11.815 13.785-7.877 21.662l59.077 100.431c3.938 7.877 13.785 9.846 21.662 5.908h1.969c7.877-3.938 9.846-13.785 5.908-21.662l-59.077-100.431c-5.908-7.877-13.785-11.815-21.662-5.908zM748.308-44.308v0c-7.877-5.908-17.723-1.969-21.662 3.938l-59.077 100.431c-3.938 7.877-1.969 15.754 5.908 21.662h1.969c7.877 3.938 15.754 1.969 21.662-5.908l59.077-100.431c1.969-5.908 0-15.754-7.877-19.692zM671.508 723.692c0-121.809-98.745-220.554-220.554-220.554s-220.554 98.745-220.554 220.554c0 121.809 98.745 220.554 220.554 220.554s220.554-98.745 220.554-220.554zM450.954 560.246c0-121.809-98.745-220.554-220.554-220.554s-220.554 98.745-220.554 220.554c0 121.809 98.745 220.554 220.554 220.554s220.554-98.745 220.554-220.554zM846.769 560.246c0-121.809-98.745-220.554-220.554-220.554s-220.554 98.745-220.554 220.554c0 121.809 98.745 220.554 220.554 220.554s220.554-98.745 220.554-220.554zM226.462 491.323h389.908v-151.631h-389.908v151.631z" />
<glyph unicode="&#xe907;" glyph-name="weaImg9" horiz-adv-x="847" d="M267.815 213.662c0-29.538-23.631-51.2-51.2-51.2-29.538 0-51.2 23.631-51.2 51.2s51.2 90.585 51.2 90.585c0 0 51.2-63.015 51.2-90.585zM480.492 213.662c0-29.538-23.631-51.2-51.2-51.2s-51.2 23.631-51.2 51.2c0 27.569 51.2 90.585 51.2 90.585s51.2-63.015 51.2-90.585zM693.169 213.662c0-29.538-23.631-51.2-51.2-51.2s-51.2 23.631-51.2 51.2c0 27.569 51.2 90.585 51.2 90.585s51.2-63.015 51.2-90.585zM482.462 4.923c0-29.538-23.631-51.2-51.2-51.2s-51.2 23.631-51.2 51.2c0 29.538 51.2 90.585 51.2 90.585s51.2-63.015 51.2-90.585zM693.169 4.923c0-29.538-23.631-51.2-51.2-51.2s-51.2 23.631-51.2 51.2c0 29.538 51.2 90.585 51.2 90.585s51.2-63.015 51.2-90.585zM269.785 4.923c0-29.538-23.631-51.2-51.2-51.2-29.538 0-51.2 23.631-51.2 51.2 0 29.538 51.2 90.585 51.2 90.585s51.2-63.015 51.2-90.585zM671.508 723.692c0-121.809-98.745-220.554-220.554-220.554s-220.554 98.745-220.554 220.554c0 121.809 98.745 220.554 220.554 220.554s220.554-98.745 220.554-220.554zM450.954 560.246c0-121.809-98.745-220.554-220.554-220.554s-220.554 98.745-220.554 220.554c0 121.809 98.745 220.554 220.554 220.554s220.554-98.745 220.554-220.554zM846.769 560.246c0-121.809-98.745-220.554-220.554-220.554s-220.554 98.745-220.554 220.554c0 121.809 98.745 220.554 220.554 220.554s220.554-98.745 220.554-220.554zM228.431 491.323h389.908v-151.631h-389.908v151.631z" />
<glyph unicode="&#xe908;" glyph-name="weaImg23" horiz-adv-x="847" d="M198.892 213.662c0-29.538-23.631-51.2-51.2-51.2s-51.2 23.631-51.2 51.2c0 29.538 51.2 90.585 51.2 90.585s51.2-61.046 51.2-90.585zM385.969 213.662c0-29.538-23.631-51.2-51.2-51.2-29.538 0-51.2 23.631-51.2 51.2 0 29.538 51.2 90.585 51.2 90.585s51.2-61.046 51.2-90.585zM571.077 213.662c0-29.538-23.631-51.2-51.2-51.2-29.538 0-51.2 23.631-51.2 51.2 0 29.538 51.2 90.585 51.2 90.585s51.2-61.046 51.2-90.585zM385.969 4.923c0-29.538-23.631-51.2-51.2-51.2-29.538 0-51.2 23.631-51.2 51.2s51.2 90.585 51.2 90.585c0 0 51.2-61.046 51.2-90.585zM571.077 4.923c0-29.538-23.631-51.2-51.2-51.2s-51.2 23.631-51.2 51.2c0 27.569 51.2 90.585 51.2 90.585s51.2-61.046 51.2-90.585zM758.154 213.662c0-29.538-23.631-51.2-51.2-51.2-29.538 0-51.2 23.631-51.2 51.2 0 29.538 51.2 90.585 51.2 90.585s51.2-61.046 51.2-90.585zM758.154 4.923c0-29.538-23.631-51.2-51.2-51.2-29.538 0-51.2 23.631-51.2 51.2s51.2 90.585 51.2 90.585c0 0 51.2-61.046 51.2-90.585zM200.862 4.923c0-29.538-23.631-51.2-51.2-51.2s-51.2 23.631-51.2 51.2c0 27.569 51.2 90.585 51.2 90.585s51.2-61.046 51.2-90.585zM667.569 725.662c0-121.809-98.745-220.554-220.554-220.554s-220.554 98.745-220.554 220.554c0 121.809 98.745 220.554 220.554 220.554s220.554-98.745 220.554-220.554zM447.015 562.215c0-121.809-98.745-220.554-220.554-220.554s-220.554 98.745-220.554 220.554c0 121.809 98.745 220.554 220.554 220.554s220.554-98.745 220.554-220.554zM842.831 562.215c0-121.809-98.745-220.554-220.554-220.554s-220.554 98.745-220.554 220.554c0 121.809 98.745 220.554 220.554 220.554s220.554-98.745 220.554-220.554zM224.492 493.292h389.908v-151.631h-389.908v151.631z" />
<glyph unicode="&#xe909;" glyph-name="weaImg19" horiz-adv-x="847" d="M234.338 211.692c0-29.538-23.631-51.2-51.2-51.2s-51.2 23.631-51.2 51.2c0 29.538 51.2 90.585 51.2 90.585s51.2-63.015 51.2-90.585zM448.985 211.692c0-29.538-23.631-51.2-51.2-51.2-29.538 0-51.2 23.631-51.2 51.2 0 29.538 51.2 90.585 51.2 90.585s51.2-63.015 51.2-90.585zM236.308 0.985c0-29.538-23.631-51.2-51.2-51.2s-51.2 23.631-51.2 51.2c0 29.538 51.2 90.585 51.2 90.585s51.2-61.046 51.2-90.585zM661.662 721.723c0-121.809-98.745-220.554-220.554-220.554s-220.554 98.745-220.554 220.554c0 121.809 98.745 220.554 220.554 220.554s220.554-98.745 220.554-220.554zM443.077 558.277c0-121.809-98.745-220.554-220.554-220.554s-220.554 98.745-220.554 220.554c0 121.809 98.745 220.554 220.554 220.554s220.554-98.745 220.554-220.554zM838.892 558.277c0-121.809-98.745-220.554-220.554-220.554s-220.554 98.745-220.554 220.554c0 121.809 98.745 220.554 220.554 220.554s220.554-98.745 220.554-220.554zM218.585 489.354h389.908v-151.631h-389.908v151.631zM606.523 164.431l-61.046 61.046c-1.969 1.969-1.969 5.908 0 7.877l61.046 61.046c1.969 1.969 5.908 1.969 7.877 0l61.046-61.046c1.969-1.969 1.969-5.908 0-7.877l-61.046-61.046c-1.969-1.969-5.908-1.969-7.877 0zM393.846-44.308l-61.046 61.046c-1.969 1.969-1.969 5.908 0 7.877l61.046 61.046c1.969 1.969 5.908 1.969 7.877 0l61.046-61.046c1.969-1.969 1.969-5.908 0-7.877l-61.046-61.046c-1.969-1.969-5.908-1.969-7.877 0zM606.523-44.308l-61.046 61.046c-1.969 1.969-1.969 5.908 0 7.877l61.046 61.046c1.969 1.969 5.908 1.969 7.877 0l61.046-61.046c1.969-1.969 1.969-5.908 0-7.877l-61.046-61.046c-1.969-1.969-5.908-1.969-7.877 0z" />
<glyph unicode="&#xe90a;" horiz-adv-x="1274" d="M1067.236 575.431c0-94.257-76.41-170.667-170.667-170.667s-170.667 76.41-170.667 170.667c0 94.257 76.41 170.667 170.667 170.667s170.667-76.41 170.667-170.667z" />
<glyph unicode="&#xe90b;" horiz-adv-x="1274" d="M898.844 798.436h-2.276c-13.653 0-22.756 11.378-22.756 22.756v104.676c0 13.653 11.378 22.756 22.756 22.756h2.276c13.653 0 22.756-11.378 22.756-22.756v-104.676c0-11.378-11.378-22.756-22.756-22.756z" />
<glyph unicode="&#xe90c;" horiz-adv-x="1274" d="M739.556 734.72v0c-11.378-11.378-27.307-11.378-36.409-2.276l-72.818 72.818c-9.102 9.102-9.102 25.031 0 34.133l2.276 2.276c9.102 9.102 25.031 9.102 34.133 0l72.818-72.818c9.102-11.378 9.102-25.031 0-34.133z" />
<glyph unicode="&#xe90d;" horiz-adv-x="1274" d="M673.564 577.707v-4.551c0-13.653-11.378-22.756-22.756-22.756h-104.676c-13.653 0-22.756 11.378-22.756 22.756v2.276c0 13.653 11.378 22.756 22.756 22.756h104.676c11.378 2.276 22.756-9.102 22.756-20.48z" />
<glyph unicode="&#xe90e;" horiz-adv-x="1274" d="M737.28 418.418v0c11.378-11.378 11.378-27.307 2.276-36.409l-72.818-72.818c-9.102-9.102-25.031-9.102-34.133 0l-2.276 2.276c-9.102 9.102-9.102 25.031 0 34.133l72.818 72.818c9.102 9.102 25.031 9.102 34.133 0z" />
<glyph unicode="&#xe90f;" horiz-adv-x="1274" d="M894.293 352.427h2.276c13.653 0 22.756-11.378 22.756-22.756v-104.676c0-13.653-11.378-22.756-22.756-22.756h-2.276c-13.653 0-22.756 11.378-22.756 22.756v104.676c0 11.378 11.378 22.756 22.756 22.756z" />
<glyph unicode="&#xe910;" horiz-adv-x="1274" d="M1053.582 416.142v0c11.378 11.378 27.307 11.378 36.409 2.276l72.818-72.818c9.102-9.102 9.102-25.031 0-34.133l-2.276-2.276c-9.102-9.102-25.031-9.102-34.133 0l-72.818 72.818c-9.102 9.102-9.102 25.031 0 34.133z" />
<glyph unicode="&#xe911;" horiz-adv-x="1274" d="M1119.573 573.156v2.276c0 13.653 11.378 22.756 22.756 22.756h104.676c13.653 0 22.756-11.378 22.756-22.756v-2.276c0-13.653-11.378-22.756-22.756-22.756h-104.676c-11.378 0-22.756 11.378-22.756 22.756z" />
<glyph unicode="&#xe912;" horiz-adv-x="1274" d="M1055.858 732.444v0c-11.378 11.378-11.378 27.307-2.276 36.409l72.818 72.818c9.102 9.102 25.031 9.102 34.133 0l2.276-2.276c9.102-9.102 9.102-25.031 0-34.133l-72.818-72.818c-9.102-9.102-25.031-9.102-34.133 0z" />
<glyph unicode="&#xe913;" horiz-adv-x="1274" d="M839.68 427.52c0-153.324-124.294-277.618-277.618-277.618s-277.618 124.294-277.618 277.618c0 153.324 124.294 277.618 277.618 277.618s277.618-124.294 277.618-277.618z" />
<glyph unicode="&#xe914;" horiz-adv-x="1274" d="M562.062 222.72c0-153.324-124.294-277.618-277.618-277.618s-277.618 124.294-277.618 277.618c0 153.324 124.294 277.618 277.618 277.618s277.618-124.294 277.618-277.618z" />
<glyph unicode="&#xe915;" horiz-adv-x="1274" d="M1062.684 222.72c0-153.324-124.294-277.618-277.618-277.618s-277.618 124.294-277.618 277.618c0 153.324 124.294 277.618 277.618 277.618s277.618-124.294 277.618-277.618z" />
<glyph unicode="&#xe916;" horiz-adv-x="1274" d="M282.169 133.973h491.52v-191.147h-491.52v191.147z" />
<glyph unicode="&#xe917;" glyph-name="weaImg29" horiz-adv-x="1105" d="M13.474 0.674v0c0 32.337 26.947 56.589 56.589 56.589h956.632c32.337 0 56.589-26.947 56.589-56.589v0c0-32.337-26.947-56.589-56.589-56.589h-956.632c-29.642-2.695-56.589 24.253-56.589 56.589zM10.779 213.558v0c0 32.337 26.947 56.589 56.589 56.589h528.168c32.337 0 56.589-26.947 56.589-56.589v0c0-32.337-26.947-56.589-56.589-56.589h-528.168c-32.337 0-56.589 26.947-56.589 56.589zM759.916 213.558v0c0 32.337 26.947 56.589 56.589 56.589h210.189c32.337 0 56.589-26.947 56.589-56.589v0c0-32.337-26.947-56.589-56.589-56.589h-210.189c-29.642 0-56.589 26.947-56.589 56.589zM175.158 450.695c0-37.207-30.162-67.368-67.368-67.368s-67.368 30.162-67.368 67.368c0 37.207 30.162 67.368 67.368 67.368s67.368-30.162 67.368-67.368zM468.884 450.695c0-37.207-30.162-67.368-67.368-67.368s-67.368 30.162-67.368 67.368c0 37.207 30.162 67.368 67.368 67.368s67.368-30.162 67.368-67.368zM762.611 450.695c0-37.207-30.162-67.368-67.368-67.368s-67.368 30.162-67.368 67.368c0 37.207 30.162 67.368 67.368 67.368s67.368-30.162 67.368-67.368zM328.758 671.663c0-37.207-30.162-67.368-67.368-67.368s-67.368 30.162-67.368 67.368c0 37.207 30.162 67.368 67.368 67.368s67.368-30.162 67.368-67.368zM614.4 671.663c0-37.207-30.162-67.368-67.368-67.368s-67.368 30.162-67.368 67.368c0 37.207 30.162 67.368 67.368 67.368s67.368-30.162 67.368-67.368zM900.042 671.663c0-37.207-30.162-67.368-67.368-67.368s-67.368 30.162-67.368 67.368c0 37.207 30.162 67.368 67.368 67.368s67.368-30.162 67.368-67.368zM1056.337 450.695c0-37.207-30.162-67.368-67.368-67.368s-67.368 30.162-67.368 67.368c0 37.207 30.162 67.368 67.368 67.368s67.368-30.162 67.368-67.368zM172.463 889.937c0-37.207-30.162-67.368-67.368-67.368s-67.368 30.162-67.368 67.368c0 37.207 30.162 67.368 67.368 67.368s67.368-30.162 67.368-67.368zM466.189 889.937c0-37.207-30.162-67.368-67.368-67.368s-67.368 30.162-67.368 67.368c0 37.207 30.162 67.368 67.368 67.368s67.368-30.162 67.368-67.368zM759.916 889.937c0-37.207-30.162-67.368-67.368-67.368s-67.368 30.162-67.368 67.368c0 37.207 30.162 67.368 67.368 67.368s67.368-30.162 67.368-67.368zM1053.642 889.937c0-37.207-30.162-67.368-67.368-67.368s-67.368 30.162-67.368 67.368c0 37.207 30.162 67.368 67.368 67.368s67.368-30.162 67.368-67.368z" />
<glyph unicode="&#xe918;" horiz-adv-x="866" d="M252.062 211.692c0-29.538-23.631-51.2-51.2-51.2s-51.2 23.631-51.2 51.2c0 29.538 51.2 90.585 51.2 90.585s51.2-61.046 51.2-90.585z" />
<glyph unicode="&#xe919;" horiz-adv-x="866" d="M254.031 0.985c0-29.538-23.631-51.2-51.2-51.2s-51.2 23.631-51.2 51.2c0 29.538 51.2 90.585 51.2 90.585s51.2-63.015 51.2-90.585z" />
<glyph unicode="&#xe91a;" horiz-adv-x="866" d="M758.154 0.985c0-29.538-23.631-51.2-51.2-51.2s-51.2 23.631-51.2 51.2c0 29.538 51.2 90.585 51.2 90.585s51.2-63.015 51.2-90.585z" />
<glyph unicode="&#xe91b;" horiz-adv-x="866" d="M756.185 211.692c0-29.538-23.631-51.2-51.2-51.2s-51.2 23.631-51.2 51.2c0 29.538 51.2 90.585 51.2 90.585s51.2-61.046 51.2-90.585z" />
<glyph unicode="&#xe91c;" horiz-adv-x="866" d="M675.446 723.692c0-121.809-98.745-220.554-220.554-220.554s-220.554 98.745-220.554 220.554c0 121.809 98.745 220.554 220.554 220.554s220.554-98.745 220.554-220.554z" />
<glyph unicode="&#xe91d;" horiz-adv-x="866" d="M454.892 560.246c0-121.809-98.745-220.554-220.554-220.554s-220.554 98.745-220.554 220.554c0 121.809 98.745 220.554 220.554 220.554s220.554-98.745 220.554-220.554z" />
<glyph unicode="&#xe91e;" horiz-adv-x="866" d="M850.708 560.246c0-121.809-98.745-220.554-220.554-220.554s-220.554 98.745-220.554 220.554c0 121.809 98.745 220.554 220.554 220.554s220.554-98.745 220.554-220.554z" />
<glyph unicode="&#xe91f;" horiz-adv-x="866" d="M230.4 491.323h389.908v-151.631h-389.908v151.631z" />
<glyph unicode="&#xe920;" horiz-adv-x="866" d="M553.354 247.138l-61.046 21.662c-3.938 1.969-5.908 5.908-5.908 11.815l72.862 202.831c3.938 7.877-7.877 15.754-13.785 7.877l-194.954-206.769c-3.938-3.938-1.969-11.815 3.938-13.785l61.046-21.662c3.938-1.969 5.908-5.908 5.908-11.815l-72.862-202.831c-3.938-7.877 7.877-15.754 13.785-7.877l194.954 206.769c3.938 5.908 1.969 11.815-3.938 13.785z" />
<glyph unicode="&#xe921;" horiz-adv-x="883" d="M259.012 207.059c0-30.118-24.094-52.204-52.204-52.204-30.118 0-52.204 24.094-52.204 52.204s52.204 92.361 52.204 92.361c0 0 52.204-64.251 52.204-92.361z" />
<glyph unicode="&#xe922;" horiz-adv-x="883" d="M261.020-9.788c0-30.118-24.094-52.204-52.204-52.204s-52.204 24.094-52.204 52.204c0 30.118 52.204 92.361 52.204 92.361s52.204-62.243 52.204-92.361z" />
<glyph unicode="&#xe923;" horiz-adv-x="883" d="M690.698 729.098c0-124.197-100.682-224.878-224.878-224.878s-224.878 100.682-224.878 224.878c0 124.197 100.682 224.878 224.878 224.878s224.878-100.682 224.878-224.878z" />
<glyph unicode="&#xe924;" horiz-adv-x="883" d="M465.82 562.447c0-124.197-100.682-224.878-224.878-224.878s-224.878 100.682-224.878 224.878c0 124.197 100.682 224.878 224.878 224.878s224.878-100.682 224.878-224.878z" />
<glyph unicode="&#xe925;" horiz-adv-x="883" d="M869.396 562.447c0-124.197-100.682-224.878-224.878-224.878s-224.878 100.682-224.878 224.878c0 124.197 100.682 224.878 224.878 224.878s224.878-100.682 224.878-224.878z" />
<glyph unicode="&#xe926;" horiz-adv-x="883" d="M236.925 492.173h397.553v-154.604h-397.553v154.604z" />
<glyph unicode="&#xe927;" horiz-adv-x="883" d="M566.212 243.2l-62.243 22.086c-4.016 2.008-6.024 6.024-6.024 12.047l74.29 206.808c4.016 8.031-8.031 16.063-14.055 8.031l-198.776-210.824c-4.016-4.016-2.008-12.047 4.016-14.055l62.243-22.086c4.016-2.008 6.024-6.024 6.024-12.047l-74.29-206.808c-4.016-8.031 8.031-16.063 14.055-8.031l198.776 210.824c4.016 4.016 2.008 12.047-4.016 14.055z" />
<glyph unicode="&#xe928;" horiz-adv-x="883" d="M769.004 207.059c0-29.94-24.271-54.212-54.212-54.212s-54.212 24.271-54.212 54.212c0 29.94 24.271 54.212 54.212 54.212s54.212-24.271 54.212-54.212z" />
<glyph unicode="&#xe929;" horiz-adv-x="883" d="M769.004-7.78c0-29.94-24.271-54.212-54.212-54.212s-54.212 24.271-54.212 54.212c0 29.94 24.271 54.212 54.212 54.212s54.212-24.271 54.212-54.212z" />
<glyph unicode="&#xe92a;" glyph-name="weaImg31" horiz-adv-x="1073" d="M877.714 301.714c-2.438 0-4.876 0-7.314 0s-4.876 0-7.314 0h-814.324c-26.819 0-48.762-21.943-48.762-48.762s21.943-48.762 48.762-48.762h816.762c2.438 0 4.876 0 4.876 0 2.438 0 4.876 0 7.314 0 43.886 0 80.457-36.571 80.457-80.457s-36.571-80.457-80.457-80.457c-24.381 0-48.762 12.19-63.39 29.257-17.067 21.943-48.762 24.381-68.267 7.314-21.943-17.067-24.381-48.762-7.314-68.267 34.133-41.448 85.333-65.829 138.971-65.829 99.962 0 177.981 80.457 177.981 177.981s-78.019 177.981-177.981 177.981zM658.286 584.533c-2.438 0-4.876 0-7.314 0s-4.876 0-7.314 0h-594.895c-26.819 0-48.762 21.943-48.762 48.762s21.943 48.762 48.762 48.762h597.333c2.438 0 4.876 0 4.876 0 2.438 0 4.876 0 7.314 0 43.886 0 80.457 36.571 80.457 80.457s-36.571 80.457-80.457 80.457c-24.381 0-48.762-12.19-63.39-29.257-17.067-21.943-48.762-24.381-68.267-7.314-21.943 17.067-24.381 48.762-7.314 68.267 34.133 41.448 85.333 65.829 138.971 65.829 99.962 0 177.981-80.457 177.981-177.981s-78.019-177.981-177.981-177.981zM151.162 835.657c0-33.663-27.289-60.952-60.952-60.952s-60.952 27.289-60.952 60.952c0 33.663 27.289 60.952 60.952 60.952s60.952-27.289 60.952-60.952zM409.6 835.657c0-33.663-27.289-60.952-60.952-60.952s-60.952 27.289-60.952 60.952c0 33.663 27.289 60.952 60.952 60.952s60.952-27.289 60.952-60.952zM146.286 48.152c0-33.663-27.289-60.952-60.952-60.952s-60.952 27.289-60.952 60.952c0 33.663 27.289 60.952 60.952 60.952s60.952-27.289 60.952-60.952zM407.162 48.152c0-33.663-27.289-60.952-60.952-60.952s-60.952 27.289-60.952 60.952c0 33.663 27.289 60.952 60.952 60.952s60.952-27.289 60.952-60.952zM658.286 48.152c0-33.663-27.289-60.952-60.952-60.952s-60.952 27.289-60.952 60.952c0 33.663 27.289 60.952 60.952 60.952s60.952-27.289 60.952-60.952zM146.286 440.686c0-33.663-27.289-60.952-60.952-60.952s-60.952 27.289-60.952 60.952c0 33.663 27.289 60.952 60.952 60.952s60.952-27.289 60.952-60.952zM1058.133 572.343c0-99.962-80.457-177.981-177.981-177.981-2.438 0-4.876 0-7.314 0s-4.876 0-7.314 0h-597.333c-26.819 0-48.762 21.943-48.762 48.762s21.943 48.762 48.762 48.762h597.333c2.438 0 4.876 0 4.876 0 2.438 0 4.876 0 7.314 0 43.886 0 80.457 36.571 80.457 80.457 0 29.257-17.067 56.076-41.448 70.705 0 0-2.438 0-2.438 2.438-7.314 4.876-12.19 9.752-17.067 14.629l68.267 68.267c0 0 0 0 0 0 56.076-31.695 92.648-87.771 92.648-156.038zM989.867 689.371v0c0-26.819-21.943-48.762-48.762-48.762h-2.438c-7.314 0-14.629 2.438-19.505 4.876 0 0-2.438 0-2.438 2.438-7.314 4.876-12.19 9.752-17.067 14.629-4.876 7.314-7.314 17.067-7.314 26.819v0c0 26.819 21.943 48.762 48.762 48.762h2.438c9.752 0 19.505-2.438 26.819-7.314 0 0 0 0 0 0 9.752-12.19 19.505-26.819 19.505-41.448z" />
<glyph unicode="&#xe92b;" glyph-name="weaImg0" d="M739.142 448c0-127.503-103.362-230.865-230.865-230.865s-230.865 103.362-230.865 230.865c0 127.503 103.362 230.865 230.865 230.865s230.865-103.362 230.865-230.865zM508.276 751.476v0c-18.618 0-33.513 14.895-33.513 33.513v137.775c0 18.618 14.895 33.513 33.513 33.513v0c18.618 0 33.513-14.895 33.513-33.513v-137.775c1.862-18.618-14.895-33.513-33.513-33.513zM294.167 662.109v0c-13.033-13.033-35.375-13.033-48.407 0l-96.815 96.815c-13.033 13.033-13.033 35.375 0 48.407v0c13.033 13.033 35.375 13.033 48.407 0l96.815-96.815c13.033-13.033 13.033-35.375 0-48.407zM206.662 448v0c0-18.618-14.895-33.513-33.513-33.513h-137.775c-18.618 0-33.513 14.895-33.513 33.513v0c0 18.618 14.895 33.513 33.513 33.513h137.775c16.756 0 33.513-14.895 33.513-33.513zM294.167 233.891v0c13.033-13.033 13.033-35.375 0-48.407l-96.815-96.815c-13.033-13.033-35.375-13.033-48.407 0v0c-13.033 13.033-13.033 35.375 0 48.407l96.815 96.815c13.033 13.033 35.375 13.033 48.407 0zM508.276 144.524v0c18.618 0 33.513-14.895 33.513-33.513v-137.775c0-18.618-14.895-33.513-33.513-33.513v0c-18.618 0-33.513 14.895-33.513 33.513v137.775c0 18.618 14.895 33.513 33.513 33.513zM722.385 233.891v0c13.033 13.033 35.375 13.033 48.407 0l96.815-96.815c13.033-13.033 13.033-35.375 0-48.407v0c-13.033-13.033-35.375-13.033-48.407 0l-96.815 96.815c-13.033 13.033-13.033 35.375 0 48.407zM811.753 448v0c0 18.618 14.895 33.513 33.513 33.513h137.775c18.618 0 33.513-14.895 33.513-33.513v0c0-18.618-14.895-33.513-33.513-33.513h-137.775c-18.618 0-33.513 14.895-33.513 33.513zM722.385 662.109v0c-13.033 13.033-13.033 35.375 0 48.407l96.815 96.815c13.033 13.033 35.375 13.033 48.407 0v0c13.033-13.033 13.033-35.375 0-48.407l-96.815-96.815c-13.033-13.033-33.513-13.033-48.407 0z" />
<glyph unicode="&#xe92c;" glyph-name="weaImg20" horiz-adv-x="1726" d="M801.646 380.709c-2.926 0-5.851 0-8.777 0s-5.851 0-8.777 0h-453.486c-32.183 0-58.514-26.331-58.514-58.514s26.331-58.514 58.514-58.514h453.486c2.926 0 5.851 0 5.851 0 2.926 0 5.851 0 8.777 0 52.663 0 96.549-43.886 96.549-96.549s-43.886-96.549-96.549-96.549c-29.257 0-58.514 14.629-76.069 35.109-20.48 26.331-58.514 29.257-81.92 8.777-26.331-20.48-29.257-58.514-8.777-81.92 40.96-49.737 102.4-78.994 166.766-78.994 119.954 0 213.577 96.549 213.577 213.577s-90.697 213.577-210.651 213.577zM801.646 494.811c-2.926 0-5.851 0-8.777 0s-5.851 0-8.777 0h-716.8c-32.183 0-58.514 26.331-58.514 58.514s26.331 58.514 58.514 58.514h716.8c2.926 0 5.851 0 5.851 0 2.926 0 5.851 0 8.777 0 52.663 0 96.549 43.886 96.549 96.549s-43.886 96.549-96.549 96.549c-29.257 0-58.514-14.629-76.069-35.109-20.48-26.331-58.514-29.257-81.92-8.777-26.331 20.48-29.257 58.514-8.777 81.92 40.96 49.737 102.4 78.994 166.766 78.994 119.954 0 213.577-96.549 213.577-213.577s-90.697-213.577-210.651-213.577zM1228.8 863.451c0-40.396-32.747-73.143-73.143-73.143s-73.143 32.747-73.143 73.143c0 40.396 32.747 73.143 73.143 73.143s73.143-32.747 73.143-73.143zM1228.8 585.509c0-40.396-32.747-73.143-73.143-73.143s-73.143 32.747-73.143 73.143c0 40.396 32.747 73.143 73.143 73.143s73.143-32.747 73.143-73.143zM1228.8 304.64c0-40.396-32.747-73.143-73.143-73.143s-73.143 32.747-73.143 73.143c0 40.396 32.747 73.143 73.143 73.143s73.143-32.747 73.143-73.143zM1468.709 725.943c0-40.396-32.747-73.143-73.143-73.143s-73.143 32.747-73.143 73.143c0 40.396 32.747 73.143 73.143 73.143s73.143-32.747 73.143-73.143zM1468.709 448c0-40.396-32.747-73.143-73.143-73.143s-73.143 32.747-73.143 73.143c0 40.396 32.747 73.143 73.143 73.143s73.143-32.747 73.143-73.143zM1708.617 585.509c0-40.396-32.747-73.143-73.143-73.143s-73.143 32.747-73.143 73.143c0 40.396 32.747 73.143 73.143 73.143s73.143-32.747 73.143-73.143zM1708.617 307.566c0-40.396-32.747-73.143-73.143-73.143s-73.143 32.747-73.143 73.143c0 40.396 32.747 73.143 73.143 73.143s73.143-32.747 73.143-73.143zM1468.709 167.131c0-40.396-32.747-73.143-73.143-73.143s-73.143 32.747-73.143 73.143c0 40.396 32.747 73.143 73.143 73.143s73.143-32.747 73.143-73.143zM1228.8 23.771c0-40.396-32.747-73.143-73.143-73.143s-73.143 32.747-73.143 73.143c0 40.396 32.747 73.143 73.143 73.143s73.143-32.747 73.143-73.143z" />
<glyph unicode="&#xe92d;" glyph-name="weaImg12" horiz-adv-x="904" d="M112.439 211.075c0-30.118-24.094-52.204-52.204-52.204s-52.204 24.094-52.204 52.204c0 28.11 52.204 92.361 52.204 92.361s52.204-62.243 52.204-92.361zM267.043 211.075c0-30.118-24.094-52.204-52.204-52.204-30.118 0-52.204 24.094-52.204 52.204s52.204 92.361 52.204 92.361c0 0 52.204-62.243 52.204-92.361zM423.655 211.075c0-30.118-24.094-52.204-52.204-52.204s-52.204 24.094-52.204 52.204c0 28.11 52.204 92.361 52.204 92.361s52.204-62.243 52.204-92.361zM269.051-1.757c0-30.118-24.094-52.204-52.204-52.204-30.118 0-52.204 24.094-52.204 52.204 0 30.118 52.204 92.361 52.204 92.361s52.204-62.243 52.204-92.361zM423.655-1.757c0-30.118-24.094-52.204-52.204-52.204-30.118 0-52.204 24.094-52.204 52.204 0 30.118 52.204 92.361 52.204 92.361s52.204-62.243 52.204-92.361zM578.259 211.075c0-30.118-24.094-52.204-52.204-52.204-30.118 0-52.204 24.094-52.204 52.204s52.204 92.361 52.204 92.361c0 0 52.204-62.243 52.204-92.361zM580.267-1.757c0-30.118-24.094-52.204-52.204-52.204s-52.204 24.094-52.204 52.204c0 30.118 52.204 92.361 52.204 92.361s52.204-62.243 52.204-92.361zM734.871 211.075c0-30.118-24.094-52.204-52.204-52.204s-52.204 24.094-52.204 52.204c0 28.11 52.204 92.361 52.204 92.361s52.204-62.243 52.204-92.361zM734.871-1.757c0-30.118-24.094-52.204-52.204-52.204-30.118 0-52.204 24.094-52.204 52.204 0 30.118 52.204 92.361 52.204 92.361s52.204-62.243 52.204-92.361zM891.482 211.075c0-30.118-24.094-52.204-52.204-52.204-30.118 0-52.204 24.094-52.204 52.204s52.204 92.361 52.204 92.361c0 0 52.204-62.243 52.204-92.361zM891.482-1.757c0-30.118-24.094-52.204-52.204-52.204s-52.204 24.094-52.204 52.204c0 30.118 52.204 92.361 52.204 92.361s52.204-62.243 52.204-92.361zM114.447-1.757c0-30.118-24.094-52.204-52.204-52.204s-52.204 24.094-52.204 52.204c0 30.118 52.204 92.361 52.204 92.361s52.204-62.243 52.204-92.361zM692.706 733.114c0-124.197-100.682-224.878-224.878-224.878s-224.878 100.682-224.878 224.878c0 124.197 100.682 224.878 224.878 224.878s224.878-100.682 224.878-224.878zM467.827 566.463c0-124.197-100.682-224.878-224.878-224.878s-224.878 100.682-224.878 224.878c0 124.197 100.682 224.878 224.878 224.878s224.878-100.682 224.878-224.878zM871.404 566.463c0-124.197-100.682-224.878-224.878-224.878s-224.878 100.682-224.878 224.878c0 124.197 100.682 224.878 224.878 224.878s224.878-100.682 224.878-224.878zM240.941 496.188h397.553v-154.604h-397.553v154.604z" />
<glyph unicode="&#xe92e;" horiz-adv-x="1455" d="M1121.011 677.053c-40.421 161.684-185.937 280.253-358.4 280.253s-317.979-115.874-361.095-274.863c-2.695 0-8.084 0-10.779 0-204.8 0-371.874-164.379-374.568-369.179 0-204.8 161.684-369.179 366.484-374.568v0h660.211c5.389 0 8.084 0 13.474 0 204.8 0 371.874 164.379 374.568 369.179 0 185.937-134.737 339.537-309.895 369.179z" />
<glyph unicode="&#xe92f;" horiz-adv-x="1455" d="M840.758 623.158c-26.947 24.253-64.674 37.726-110.484 37.726-51.2 0-91.621-16.168-121.263-45.811s-43.116-70.063-43.116-123.958v0c0 0 0 0 0-2.695 0-16.168 13.474-29.642 29.642-29.642s29.642 13.474 29.642 29.642c0 0 0 0 0 2.695v0c0 78.147 35.032 115.874 102.4 115.874 26.947 0 48.505-8.084 64.674-21.558 16.168-16.168 24.253-35.032 24.253-56.589 0-26.947-16.168-53.895-45.811-83.537l-24.253-21.558c-21.558-21.558-37.726-37.726-43.116-53.895s-10.779-40.421-10.779-72.758v-5.389c0 0 0 0 0 0s0 0 0 0v0 0c0-16.168 13.474-26.947 29.642-26.947s29.642 13.474 29.642 29.642c0 0 0 0 0 2.695v10.779c0 35.032 16.168 64.674 48.505 91.621 53.895 45.811 80.842 86.232 80.842 129.347 0 35.032-13.474 67.368-40.421 94.316z" />
<glyph unicode="&#xe930;" horiz-adv-x="1455" d="M757.221 194.695c0 0 0 0 0 0v0 0c0 18.863-16.168 32.337-32.337 32.337-18.863 0-32.337-13.474-32.337-32.337v0 0c0 0 0 0 0 0s0 0 0 0v-35.032c0 0 0 0 0 0 0-18.863 13.474-32.337 32.337-32.337s32.337 13.474 32.337 32.337c0 0 0 0 0 0v35.032c0 0 0 0 0 0z" />
<glyph unicode="&#xe931;" horiz-adv-x="871" d="M605.685 561.294c-15.251 89.328-91.506 156.868-185.191 156.868s-169.94-67.54-185.191-156.868h370.383z" />
<glyph unicode="&#xe932;" horiz-adv-x="871" d="M427.030 776.987h-10.894c-13.072 0-21.787 10.894-21.787 21.787v122.009c0 13.072 10.894 21.787 21.787 21.787h10.894c13.072 0 21.787-10.894 21.787-21.787v-122.009c0-10.894-10.894-21.787-21.787-21.787z" />
<glyph unicode="&#xe933;" horiz-adv-x="871" d="M250.553 707.268l-6.536-6.536c-8.715-8.715-23.966-8.715-32.681 0l-84.97 84.97c-8.715 8.715-8.715 23.966 0 32.681l6.536 6.536c8.715 8.715 23.966 8.715 32.681 0l84.97-84.97c8.715-8.715 8.715-21.787 0-32.681z" />
<glyph unicode="&#xe934;" horiz-adv-x="871" d="M599.149 700.732l-6.536 6.536c-8.715 8.715-8.715 23.966 0 32.681l84.97 84.97c8.715 8.715 23.966 8.715 32.681 0l6.536-6.536c8.715-8.715 8.715-23.966 0-32.681l-84.97-84.97c-8.715-8.715-23.966-8.715-32.681 0z" />
<glyph unicode="&#xe935;" horiz-adv-x="871" d="M2.179 343.421v0c0 26.145 21.787 45.753 45.753 45.753h468.426c26.145 0 45.753-21.787 45.753-45.753v0c0-26.145-21.787-45.753-45.753-45.753h-468.426c-23.966 0-45.753 19.609-45.753 45.753z" />
<glyph unicode="&#xe936;" horiz-adv-x="871" d="M640.545 343.421v0c0 26.145 21.787 45.753 45.753 45.753h139.438c26.145 0 45.753-21.787 45.753-45.753v0c0-26.145-21.787-45.753-45.753-45.753h-139.438c-26.145 0-45.753 19.609-45.753 45.753z" />
<glyph unicode="&#xe937;" horiz-adv-x="871" d="M4.357 171.302v0c0 26.145 19.609 45.753 45.753 45.753h80.613c26.145 0 45.753-19.609 45.753-45.753v0c0-26.145-19.609-45.753-45.753-45.753h-80.613c-23.966 0-45.753 19.609-45.753 45.753z" />
<glyph unicode="&#xe938;" horiz-adv-x="871" d="M272.34 171.302v0c0 26.145 21.787 45.753 45.753 45.753h507.643c26.145 0 45.753-21.787 45.753-45.753v0c0-26.145-21.787-45.753-45.753-45.753h-507.643c-23.966 0-45.753 19.609-45.753 45.753z" />
<glyph unicode="&#xe939;" horiz-adv-x="871" d="M4.357 515.54v0c0 26.145 21.787 45.753 45.753 45.753h773.447c26.145 0 45.753-21.787 45.753-45.753v0c0-26.145-21.787-45.753-45.753-45.753h-773.447c-23.966 0-45.753 19.609-45.753 45.753z" />
<glyph unicode="&#xe93a;" horiz-adv-x="871" d="M4.357-0.817v0c0 26.145 21.787 45.753 45.753 45.753h773.447c26.145 0 45.753-21.787 45.753-45.753v0c0-26.145-21.787-45.753-45.753-45.753h-773.447c-23.966 0-45.753 21.787-45.753 45.753z" />
<glyph unicode="&#xe93b;" glyph-name="weaImg53" horiz-adv-x="1254" d="M204.8 888.32c0-35.346-28.654-64-64-64s-64 28.654-64 64c0 35.346 28.654 64 64 64s64-28.654 64-64zM527.36 888.32c0-35.346-28.654-64-64-64s-64 28.654-64 64c0 35.346 28.654 64 64 64s64-28.654 64-64zM852.48 888.32c0-35.346-28.654-64-64-64s-64 28.654-64 64c0 35.346 28.654 64 64 64s64-28.654 64-64zM1175.040 888.32c0-35.346-28.654-64-64-64s-64 28.654-64 64c0 35.346 28.654 64 64 64s64-28.654 64-64zM209.92 5.12c0-35.346-28.654-64-64-64s-64 28.654-64 64c0 35.346 28.654 64 64 64s64-28.654 64-64zM535.040 5.12c0-35.346-28.654-64-64-64s-64 28.654-64 64c0 35.346 28.654 64 64 64s64-28.654 64-64zM857.6 5.12c0-35.346-28.654-64-64-64s-64 28.654-64 64c0 35.346 28.654 64 64 64s64-28.654 64-64zM1182.72 5.12c0-35.346-28.654-64-64-64s-64 28.654-64 64c0 35.346 28.654 64 64 64s64-28.654 64-64z" />
<glyph unicode="&#xe93c;" glyph-name="weaImg14" horiz-adv-x="847" d="M348.554 227.446v0c0 9.846 5.908 17.723 15.754 17.723h116.185c7.877 0 15.754-5.908 15.754-15.754v-1.969c0-7.877-5.908-15.754-15.754-15.754h-116.185c-7.877 0-15.754 5.908-15.754 15.754zM385.969 162.462v0c-7.877 5.908-11.815 13.785-7.877 21.662l59.077 100.431c3.938 7.877 13.785 9.846 21.662 5.908h1.969c7.877-3.938 9.846-13.785 5.908-21.662l-59.077-100.431c-3.938-7.877-13.785-9.846-21.662-5.908zM460.8 164.431v0c-7.877-5.908-17.723-1.969-21.662 3.938l-59.077 100.431c-3.938 7.877-1.969 15.754 5.908 21.662h1.969c7.877 3.938 15.754 1.969 21.662-5.908l59.077-100.431c1.969-5.908-1.969-15.754-7.877-19.692zM348.554 16.738v0c0 9.846 5.908 17.723 15.754 17.723h116.185c7.877 0 15.754-5.908 15.754-15.754v-1.969c0-7.877-5.908-15.754-15.754-15.754h-116.185c-7.877 1.969-15.754 7.877-15.754 15.754zM385.969-46.277v0c-7.877 5.908-11.815 13.785-7.877 21.662l59.077 100.431c3.938 7.877 13.785 9.846 21.662 5.908h1.969c7.877-3.938 9.846-13.785 5.908-21.662l-59.077-100.431c-3.938-7.877-13.785-9.846-21.662-5.908zM460.8-44.308v0c-7.877-5.908-17.723-1.969-21.662 3.938l-59.077 100.431c-3.938 7.877-1.969 15.754 5.908 21.662h1.969c7.877 3.938 15.754 1.969 21.662-5.908l59.077-100.431c1.969-5.908-1.969-15.754-7.877-19.692zM665.6 729.6c0-121.809-98.745-220.554-220.554-220.554s-220.554 98.745-220.554 220.554c0 121.809 98.745 220.554 220.554 220.554s220.554-98.745 220.554-220.554zM445.046 566.154c0-121.809-98.745-220.554-220.554-220.554s-220.554 98.745-220.554 220.554c0 121.809 98.745 220.554 220.554 220.554s220.554-98.745 220.554-220.554zM840.862 566.154c0-121.809-98.745-220.554-220.554-220.554s-220.554 98.745-220.554 220.554c0 121.809 98.745 220.554 220.554 220.554s220.554-98.745 220.554-220.554zM220.554 497.231h389.908v-151.631h-389.908v151.631z" />
<glyph unicode="&#xe93d;" glyph-name="weaImg26" horiz-adv-x="866" d="M220.554 223.508v0c0 9.846 5.908 17.723 15.754 17.723h116.185c7.877 0 15.754-5.908 15.754-15.754v-1.969c0-7.877-5.908-15.754-15.754-15.754h-116.185c-7.877 0-15.754 7.877-15.754 15.754zM257.969 160.492v0c-7.877 5.908-11.815 13.785-7.877 21.662l59.077 100.431c3.938 7.877 13.785 9.846 21.662 5.908h1.969c7.877-3.938 9.846-13.785 5.908-21.662l-59.077-100.431c-3.938-7.877-13.785-9.846-21.662-5.908zM330.831 160.492v0c-7.877-5.908-17.723-1.969-21.662 3.938l-59.077 100.431c-3.938 7.877-1.969 15.754 5.908 21.662h1.969c7.877 3.938 15.754 1.969 21.662-5.908l59.077-100.431c1.969-5.908 0-15.754-7.877-19.692zM220.554 14.769v0c0 9.846 5.908 17.723 15.754 17.723h116.185c7.877 0 15.754-5.908 15.754-15.754v-1.969c0-7.877-5.908-15.754-15.754-15.754h-116.185c-7.877 0-15.754 7.877-15.754 15.754zM257.969-48.246v0c-7.877 5.908-11.815 13.785-7.877 21.662l59.077 100.431c3.938 7.877 13.785 9.846 21.662 5.908h1.969c7.877-3.938 9.846-13.785 5.908-21.662l-59.077-100.431c-3.938-7.877-13.785-9.846-21.662-5.908zM330.831-48.246v0c-7.877-5.908-17.723-1.969-21.662 3.938l-59.077 100.431c-3.938 7.877-1.969 15.754 5.908 21.662h1.969c7.877 3.938 15.754 1.969 21.662-5.908l59.077-100.431c1.969-5.908 0-15.754-7.877-19.692zM494.277 223.508v0c0 9.846 5.908 17.723 15.754 17.723h116.185c7.877 0 15.754-5.908 15.754-15.754v-1.969c0-7.877-5.908-15.754-15.754-15.754h-116.185c-9.846 0-15.754 7.877-15.754 15.754zM531.692 160.492v0c-7.877 5.908-11.815 13.785-7.877 21.662l59.077 100.431c3.938 7.877 13.785 9.846 21.662 5.908h1.969c7.877-3.938 9.846-13.785 5.908-21.662l-59.077-100.431c-5.908-7.877-15.754-9.846-21.662-5.908zM604.554 160.492v0c-7.877-5.908-17.723-1.969-21.662 3.938l-59.077 100.431c-3.938 7.877-1.969 15.754 5.908 21.662h1.969c7.877 3.938 15.754 1.969 21.662-5.908l59.077-100.431c1.969-5.908 0-15.754-7.877-19.692zM494.277 14.769v0c0 9.846 5.908 17.723 15.754 17.723h116.185c7.877 0 15.754-5.908 15.754-15.754v-1.969c0-7.877-5.908-15.754-15.754-15.754h-116.185c-9.846 0-15.754 7.877-15.754 15.754zM531.692-48.246v0c-7.877 5.908-11.815 13.785-7.877 21.662l59.077 100.431c3.938 7.877 13.785 9.846 21.662 5.908h1.969c7.877-3.938 9.846-13.785 5.908-21.662l-59.077-100.431c-5.908-7.877-15.754-9.846-21.662-5.908zM604.554-48.246v0c-7.877-5.908-17.723-1.969-21.662 3.938l-59.077 100.431c-3.938 7.877-1.969 15.754 5.908 21.662h1.969c7.877 3.938 15.754 1.969 21.662-5.908l59.077-100.431c1.969-5.908 0-15.754-7.877-19.692zM675.446 721.723c0-121.809-98.745-220.554-220.554-220.554s-220.554 98.745-220.554 220.554c0 121.809 98.745 220.554 220.554 220.554s220.554-98.745 220.554-220.554zM454.892 558.277c0-121.809-98.745-220.554-220.554-220.554s-220.554 98.745-220.554 220.554c0 121.809 98.745 220.554 220.554 220.554s220.554-98.745 220.554-220.554zM850.708 558.277c0-121.809-98.745-220.554-220.554-220.554s-220.554 98.745-220.554 220.554c0 121.809 98.745 220.554 220.554 220.554s220.554-98.745 220.554-220.554zM230.4 489.354h389.908v-151.631h-389.908v151.631z" />
<glyph unicode="&#xe93e;" glyph-name="weaImg7" horiz-adv-x="847" d="M478.523 213.662c0-29.538-23.631-51.2-51.2-51.2s-51.2 23.631-51.2 51.2c0 27.569 51.2 90.585 51.2 90.585s51.2-63.015 51.2-90.585zM480.492 4.923c0-29.538-23.631-51.2-51.2-51.2s-51.2 23.631-51.2 51.2c0 29.538 51.2 90.585 51.2 90.585s51.2-63.015 51.2-90.585zM669.538 723.692c0-121.809-98.745-220.554-220.554-220.554s-220.554 98.745-220.554 220.554c0 121.809 98.745 220.554 220.554 220.554s220.554-98.745 220.554-220.554zM450.954 560.246c0-121.809-98.745-220.554-220.554-220.554s-220.554 98.745-220.554 220.554c0 121.809 98.745 220.554 220.554 220.554s220.554-98.745 220.554-220.554zM846.769 560.246c0-121.809-98.745-220.554-220.554-220.554s-220.554 98.745-220.554 220.554c0 121.809 98.745 220.554 220.554 220.554s220.554-98.745 220.554-220.554zM226.462 491.323h389.908v-151.631h-389.908v151.631z" />
<glyph unicode="&#xe93f;" glyph-name="weaImg21" horiz-adv-x="866" d="M346.585 211.692c0-29.538-23.631-51.2-51.2-51.2-29.538 0-51.2 23.631-51.2 51.2 0 29.538 51.2 90.585 51.2 90.585s51.2-61.046 51.2-90.585zM620.308 211.692c0-29.538-23.631-51.2-51.2-51.2s-51.2 23.631-51.2 51.2c0 29.538 51.2 90.585 51.2 90.585s51.2-61.046 51.2-90.585zM348.554 2.954c0-29.538-23.631-51.2-51.2-51.2-29.538 0-51.2 23.631-51.2 51.2 0 29.538 51.2 90.585 51.2 90.585s51.2-61.046 51.2-90.585zM620.308 2.954c0-29.538-23.631-51.2-51.2-51.2s-51.2 23.631-51.2 51.2c0 29.538 51.2 90.585 51.2 90.585s51.2-61.046 51.2-90.585zM673.477 723.692c0-121.809-98.745-220.554-220.554-220.554s-220.554 98.745-220.554 220.554c0 121.809 98.745 220.554 220.554 220.554s220.554-98.745 220.554-220.554zM454.892 560.246c0-121.809-98.745-220.554-220.554-220.554s-220.554 98.745-220.554 220.554c0 121.809 98.745 220.554 220.554 220.554s220.554-98.745 220.554-220.554zM850.708 560.246c0-121.809-98.745-220.554-220.554-220.554s-220.554 98.745-220.554 220.554c0 121.809 98.745 220.554 220.554 220.554s220.554-98.745 220.554-220.554zM230.4 491.323h389.908v-151.631h-389.908v151.631z" />
<glyph unicode="&#xe940;" glyph-name="weaImg30" horiz-adv-x="1078" d="M881.179 156.968c-2.695 0-5.389 0-8.084 0s-5.389 0-8.084 0h-805.726c-29.642 0-53.895 24.253-53.895 53.895s24.253 53.895 53.895 53.895h805.726c2.695 0 5.389 0 5.389 0 2.695 0 5.389 0 8.084 0 48.505 0 88.926 40.421 88.926 88.926s-40.421 88.926-88.926 88.926c-26.947 0-53.895-13.474-70.063-32.337-18.863-24.253-53.895-26.947-75.453-8.084-24.253 18.863-26.947 53.895-8.084 75.453 37.726 45.811 94.316 72.758 153.6 72.758 110.484 0 196.716-88.926 196.716-196.716s-86.232-196.716-194.021-196.716zM5.389-2.021v0c0 32.337 26.947 56.589 56.589 56.589h956.632c32.337 0 56.589-26.947 56.589-56.589v0c0-32.337-26.947-56.589-56.589-56.589h-956.632c-29.642-2.695-56.589 24.253-56.589 56.589zM167.074 448c0-37.207-30.162-67.368-67.368-67.368s-67.368 30.162-67.368 67.368c0 37.207 30.162 67.368 67.368 67.368s67.368-30.162 67.368-67.368zM463.495 448c0-37.207-30.162-67.368-67.368-67.368s-67.368 30.162-67.368 67.368c0 37.207 30.162 67.368 67.368 67.368s67.368-30.162 67.368-67.368zM323.368 666.274c0-37.207-30.162-67.368-67.368-67.368s-67.368 30.162-67.368 67.368c0 37.207 30.162 67.368 67.368 67.368s67.368-30.162 67.368-67.368zM164.379 887.242c0-37.207-30.162-67.368-67.368-67.368s-67.368 30.162-67.368 67.368c0 37.207 30.162 67.368 67.368 67.368s67.368-30.162 67.368-67.368zM463.495 887.242c0-37.207-30.162-67.368-67.368-67.368s-67.368 30.162-67.368 67.368c0 37.207 30.162 67.368 67.368 67.368s67.368-30.162 67.368-67.368zM759.916 887.242c0-37.207-30.162-67.368-67.368-67.368s-67.368 30.162-67.368 67.368c0 37.207 30.162 67.368 67.368 67.368s67.368-30.162 67.368-67.368zM630.568 666.274c0-37.207-30.162-67.368-67.368-67.368s-67.368 30.162-67.368 67.368c0 37.207 30.162 67.368 67.368 67.368s67.368-30.162 67.368-67.368zM1059.032 887.242c0-37.207-30.162-67.368-67.368-67.368s-67.368 30.162-67.368 67.368c0 37.207 30.162 67.368 67.368 67.368s67.368-30.162 67.368-67.368z" />
<glyph unicode="&#xe941;" horiz-adv-x="1191" d="M1097.143 397.845c-183.902 0-332.278 148.376-332.278 332.278 0 85.682 33.437 163.004 85.682 221.518-190.171-10.449-340.637-167.184-340.637-359.445 0-198.531 160.914-359.445 359.445-359.445 131.657 0 246.596 71.053 309.29 175.543-25.078-6.269-52.245-10.449-81.502-10.449z" />
<glyph unicode="&#xe942;" horiz-adv-x="1191" d="M766.955 385.306c0-140.808-114.147-254.955-254.955-254.955s-254.955 114.147-254.955 254.955c0 140.808 114.147 254.955 254.955 254.955s254.955-114.147 254.955-254.955z" />
<glyph unicode="&#xe943;" horiz-adv-x="1191" d="M509.91 197.224c0-140.808-114.147-254.955-254.955-254.955s-254.955 114.147-254.955 254.955c0 140.808 114.147 254.955 254.955 254.955s254.955-114.147 254.955-254.955z" />
<glyph unicode="&#xe944;" horiz-adv-x="1191" d="M969.665 197.224c0-140.808-114.147-254.955-254.955-254.955s-254.955 114.147-254.955 254.955c0 140.808 114.147 254.955 254.955 254.955s254.955-114.147 254.955-254.955z" />
<glyph unicode="&#xe945;" horiz-adv-x="1191" d="M252.865 115.722h451.396v-175.543h-451.396v175.543z" />
<glyph unicode="&#xe946;" glyph-name="Y_weaImg0" horiz-adv-x="956" d="M835.129 177.209c-259.413 0-468.764 209.351-468.764 468.764 0 120.604 45.511 229.831 120.604 314.027-266.24-15.929-477.867-236.658-477.867-507.449 0-279.893 227.556-507.449 507.449-507.449 184.32 0 348.16 100.124 436.907 248.036-38.684-11.378-77.369-15.929-118.329-15.929z" />
<glyph unicode="&#xe947;" horiz-adv-x="910" d="M548.409 498.062c-52.338 59.164-84.196 136.533-84.196 220.729 0 86.471 31.858 163.84 86.471 220.729-188.871-11.378-339.058-166.116-339.058-359.538 0-29.582 4.551-56.889 9.102-84.196h327.68v2.276z" />
<glyph unicode="&#xe948;" horiz-adv-x="910" d="M2.276 361.529v0c0 27.307 22.756 47.787 47.787 47.787h489.244c27.307 0 47.787-22.756 47.787-47.787v0c0-27.307-22.756-47.787-47.787-47.787h-489.244c-25.031 0-47.787 20.48-47.787 47.787z" />
<glyph unicode="&#xe949;" horiz-adv-x="910" d="M669.013 361.529v0c0 27.307 22.756 47.787 47.787 47.787h145.636c27.307 0 47.787-22.756 47.787-47.787v0c0-27.307-22.756-47.787-47.787-47.787h-145.636c-27.307 0-47.787 20.48-47.787 47.787z" />
<glyph unicode="&#xe94a;" horiz-adv-x="910" d="M4.551 181.76v0c0 27.307 20.48 47.787 47.787 47.787h84.196c27.307 0 47.787-20.48 47.787-47.787v0c0-27.307-20.48-47.787-47.787-47.787h-84.196c-25.031 0-47.787 20.48-47.787 47.787z" />
<glyph unicode="&#xe94b;" horiz-adv-x="910" d="M284.444 181.76v0c0 27.307 22.756 47.787 47.787 47.787h530.204c27.307 0 47.787-22.756 47.787-47.787v0c0-27.307-22.756-47.787-47.787-47.787h-530.204c-25.031 0-47.787 20.48-47.787 47.787z" />
<glyph unicode="&#xe94c;" horiz-adv-x="910" d="M4.551 541.298v0c0 27.307 22.756 47.787 47.787 47.787h807.822c27.307 0 47.787-22.756 47.787-47.787v0c0-27.307-22.756-47.787-47.787-47.787h-807.822c-25.031 0-47.787 20.48-47.787 47.787z" />
<glyph unicode="&#xe94d;" horiz-adv-x="910" d="M4.551 1.991v0c0 27.307 22.756 47.787 47.787 47.787h807.822c27.307 0 47.787-22.756 47.787-47.787v0c0-27.307-22.756-47.787-47.787-47.787h-807.822c-25.031 0-47.787 22.756-47.787 47.787z" />
<glyph unicode="&#xe94e;" horiz-adv-x="1005" d="M925.393 487.822c-153.6 0-276.859 123.259-276.859 276.859 0 72.059 26.548 136.533 72.059 183.941-157.393-9.481-282.548-138.43-282.548-299.615 0-164.978 134.637-299.615 299.615-299.615 109.985 0 204.8 58.785 257.896 146.015-22.756-5.689-45.511-7.585-70.163-7.585z" />
<glyph unicode="&#xe94f;" horiz-adv-x="1005" d="M650.43 476.444c0-117.297-95.088-212.385-212.385-212.385s-212.385 95.088-212.385 212.385c0 117.297 95.088 212.385 212.385 212.385s212.385-95.088 212.385-212.385z" />
<glyph unicode="&#xe950;" horiz-adv-x="1005" d="M438.044 319.052c0-117.297-95.088-212.385-212.385-212.385s-212.385 95.088-212.385 212.385c0 117.297 95.088 212.385 212.385 212.385s212.385-95.088 212.385-212.385z" />
<glyph unicode="&#xe951;" horiz-adv-x="1005" d="M819.2 319.052c0-117.297-95.088-212.385-212.385-212.385s-212.385 95.088-212.385 212.385c0 117.297 95.088 212.385 212.385 212.385s212.385-95.088 212.385-212.385z" />
<glyph unicode="&#xe952;" horiz-adv-x="1005" d="M223.763 252.681h375.467v-146.015h-375.467v146.015z" />
<glyph unicode="&#xe953;" horiz-adv-x="1005" d="M568.889-1.422v0c0 9.481 5.689 17.067 15.17 17.067h111.881c7.585 0 15.17-5.689 15.17-15.17v-1.896c0-7.585-5.689-15.17-15.17-15.17h-111.881c-9.481 0-15.17 7.585-15.17 15.17z" />
<glyph unicode="&#xe954;" horiz-adv-x="1005" d="M604.919-62.104v0c-7.585 5.689-11.378 13.274-7.585 20.859l56.889 96.711c3.793 7.585 13.274 9.481 20.859 5.689h1.896c7.585-3.793 9.481-13.274 5.689-20.859l-56.889-96.711c-5.689-7.585-15.17-9.481-20.859-5.689z" />
<glyph unicode="&#xe955;" horiz-adv-x="1005" d="M675.081-62.104v0c-7.585-5.689-17.067-1.896-20.859 3.793l-56.889 96.711c-3.793 7.585-1.896 15.17 5.689 20.859h1.896c7.585 3.793 15.17 1.896 20.859-5.689l56.889-96.711c1.896-5.689 0-15.17-7.585-18.963z" />
<glyph unicode="&#xe956;" horiz-adv-x="1005" d="M345.126-1.422v0c0 9.481 5.689 17.067 15.17 17.067h111.881c7.585 0 15.17-5.689 15.17-15.17v-1.896c0-7.585-5.689-15.17-15.17-15.17h-111.881c-9.481 0-15.17 7.585-15.17 15.17z" />
<glyph unicode="&#xe957;" horiz-adv-x="1005" d="M381.156-62.104v0c-7.585 5.689-11.378 13.274-7.585 20.859l56.889 96.711c3.793 7.585 13.274 9.481 20.859 5.689h1.896c7.585-3.793 9.481-13.274 5.689-20.859l-56.889-96.711c-5.689-7.585-15.17-9.481-20.859-5.689z" />
<glyph unicode="&#xe958;" horiz-adv-x="1005" d="M451.319-62.104v0c-7.585-5.689-17.067-1.896-20.859 3.793l-56.889 96.711c-3.793 7.585-1.896 15.17 5.689 20.859h1.896c7.585 3.793 15.17 1.896 20.859-5.689l56.889-96.711c1.896-5.689 0-15.17-7.585-18.963z" />
<glyph unicode="&#xe959;" horiz-adv-x="1005" d="M121.363-1.422v0c0 9.481 5.689 17.067 15.17 17.067h111.881c7.585 0 15.17-5.689 15.17-15.17v-1.896c0-7.585-5.689-15.17-15.17-15.17h-111.881c-9.481 0-15.17 7.585-15.17 15.17z" />
<glyph unicode="&#xe95a;" horiz-adv-x="1005" d="M157.393-62.104v0c-7.585 5.689-11.378 13.274-7.585 20.859l56.889 96.711c3.793 7.585 13.274 9.481 20.859 5.689h1.896c7.585-3.793 9.481-13.274 5.689-20.859l-56.889-96.711c-5.689-7.585-13.274-9.481-20.859-5.689z" />
<glyph unicode="&#xe95b;" horiz-adv-x="1005" d="M227.556-62.104v0c-7.585-5.689-17.067-1.896-20.859 3.793l-56.889 96.711c-3.793 7.585-1.896 15.17 5.689 20.859h1.896c7.585 3.793 15.17 1.896 20.859-5.689l56.889-96.711c1.896-5.689 0-15.17-7.585-18.963z" />
<glyph unicode="&#xe95c;" horiz-adv-x="987" d="M912.291 490.822c-150.807 0-271.825 121.018-271.825 271.825 0 70.749 26.065 134.051 70.749 180.596-154.531-9.309-277.411-135.913-277.411-294.167 0-161.978 132.189-294.167 294.167-294.167 107.985 0 201.076 57.716 253.207 143.36-22.342-3.724-44.684-7.447-68.887-7.447z" />
<glyph unicode="&#xe95d;" horiz-adv-x="987" d="M642.327 479.651c0-115.164-93.359-208.524-208.524-208.524s-208.524 93.359-208.524 208.524c0 115.164 93.359 208.524 208.524 208.524s208.524-93.359 208.524-208.524z" />
<glyph unicode="&#xe95e;" horiz-adv-x="987" d="M433.804 326.982c0-115.164-93.359-208.524-208.524-208.524s-208.524 93.359-208.524 208.524c0 115.164 93.359 208.524 208.524 208.524s208.524-93.359 208.524-208.524z" />
<glyph unicode="&#xe95f;" horiz-adv-x="987" d="M808.029 326.982c0-115.164-93.359-208.524-208.524-208.524s-208.524 93.359-208.524 208.524c0 115.164 93.359 208.524 208.524 208.524s208.524-93.359 208.524-208.524z" />
<glyph unicode="&#xe960;" horiz-adv-x="987" d="M221.556 259.956h368.64v-143.36h-368.64v143.36z" />
<glyph unicode="&#xe961;" horiz-adv-x="987" d="M260.655-2.56c0-27.927-22.342-48.407-48.407-48.407-27.927 0-48.407 22.342-48.407 48.407 0 27.927 48.407 85.644 48.407 85.644s48.407-59.578 48.407-85.644z" />
<glyph unicode="&#xe962;" horiz-adv-x="987" d="M480.349-2.56c0-27.927-22.342-48.407-48.407-48.407s-48.407 22.342-48.407 48.407c0 27.927 48.407 85.644 48.407 85.644s48.407-59.578 48.407-85.644z" />
<glyph unicode="&#xe963;" horiz-adv-x="987" d="M700.044-2.56c0-27.927-22.342-48.407-48.407-48.407s-48.407 22.342-48.407 48.407c0 27.927 48.407 85.644 48.407 85.644s48.407-59.578 48.407-85.644z" />
<glyph unicode="&#xe964;" glyph-name="weaImg2" horiz-adv-x="1392" d="M1102.769 584.533c0-200.114-162.224-362.338-362.338-362.338s-362.338 162.224-362.338 362.338c0 200.114 162.224 362.338 362.338 362.338s362.338-162.224 362.338-362.338zM740.431 316.718c0-200.114-162.224-362.338-362.338-362.338s-362.338 162.224-362.338 362.338c0 200.114 162.224 362.338 362.338 362.338s362.338-162.224 362.338-362.338zM1391.59 316.718c0-200.114-162.224-362.338-362.338-362.338s-362.338 162.224-362.338 362.338c0 200.114 162.224 362.338 362.338 362.338s362.338-162.224 362.338-362.338zM372.841 201.19h643.282v-246.81h-643.282v246.81z" />
<glyph unicode="&#xe965;" glyph-name="weaImg6" horiz-adv-x="863" d="M246.965 201.035c0-30.118-24.094-52.204-52.204-52.204-30.118 0-52.204 24.094-52.204 52.204s52.204 92.361 52.204 92.361c0 0 52.204-64.251 52.204-92.361zM467.827 201.035c0-30.118-24.094-52.204-52.204-52.204s-52.204 24.094-52.204 52.204c0 28.11 52.204 92.361 52.204 92.361s52.204-64.251 52.204-92.361zM248.973-11.796c0-30.118-24.094-52.204-52.204-52.204s-52.204 24.094-52.204 52.204c0 30.118 52.204 92.361 52.204 92.361s52.204-64.251 52.204-92.361zM684.675 721.067c0-124.197-100.682-224.878-224.878-224.878s-224.878 100.682-224.878 224.878c0 124.197 100.682 224.878 224.878 224.878s224.878-100.682 224.878-224.878zM459.796 556.424c0-124.197-100.682-224.878-224.878-224.878s-224.878 100.682-224.878 224.878c0 124.197 100.682 224.878 224.878 224.878s224.878-100.682 224.878-224.878zM863.373 556.424c0-124.197-100.682-224.878-224.878-224.878s-224.878 100.682-224.878 224.878c0 124.197 100.682 224.878 224.878 224.878s224.878-100.682 224.878-224.878zM230.902 484.141h397.553v-154.604h-397.553v154.604zM556.173 219.106v0c0 10.039 6.024 18.071 16.063 18.071h118.463c8.031 0 16.063-6.024 16.063-16.063v-2.008c0-8.031-6.024-16.063-16.063-16.063h-118.463c-8.031 0-16.063 8.031-16.063 16.063zM594.322 154.855v0c-8.031 6.024-12.047 14.055-8.031 22.086l60.235 102.4c4.016 8.031 14.055 10.039 22.086 6.024h2.008c8.031-4.016 10.039-14.055 6.024-22.086l-60.235-102.4c-4.016-8.031-14.055-10.039-22.086-6.024zM670.62 154.855v0c-8.031-6.024-18.071-2.008-22.086 4.016l-60.235 102.4c-4.016 8.031-2.008 16.063 6.024 22.086h2.008c8.031 4.016 16.063 2.008 22.086-6.024l60.235-102.4c2.008-6.024-2.008-14.055-8.031-20.078zM556.173 6.275v0c0 10.039 6.024 18.071 16.063 18.071h118.463c8.031 0 16.063-6.024 16.063-16.063v-2.008c0-8.031-6.024-16.063-16.063-16.063h-118.463c-8.031 0-16.063 8.031-16.063 16.063zM594.322-57.976v0c-8.031 6.024-12.047 14.055-8.031 22.086l60.235 102.4c4.016 8.031 14.055 10.039 22.086 6.024h2.008c8.031-4.016 10.039-14.055 6.024-22.086l-60.235-102.4c-4.016-8.031-14.055-10.039-22.086-6.024zM670.62-57.976v0c-8.031-6.024-18.071-2.008-22.086 4.016l-60.235 102.4c-4.016 8.031-2.008 16.063 6.024 22.086h2.008c8.031 4.016 16.063 2.008 22.086-6.024l60.235-102.4c2.008-6.024-2.008-14.055-8.031-20.078zM339.325 6.275v0c0 10.039 6.024 18.071 16.063 18.071h118.463c8.031 0 16.063-6.024 16.063-16.063v-2.008c0-8.031-6.024-16.063-16.063-16.063h-118.463c-10.039 0-16.063 8.031-16.063 16.063zM377.475-57.976v0c-8.031 6.024-12.047 14.055-8.031 22.086l60.235 102.4c4.016 8.031 14.055 10.039 22.086 6.024h2.008c8.031-4.016 10.039-14.055 6.024-22.086l-60.235-102.4c-6.024-8.031-14.055-10.039-22.086-6.024zM451.765-57.976v0c-8.031-6.024-18.071-2.008-22.086 4.016l-60.235 102.4c-4.016 8.031-2.008 16.063 6.024 22.086h2.008c8.031 4.016 16.063 2.008 22.086-6.024l60.235-102.4c2.008-6.024 0-14.055-8.031-20.078z" />
<glyph unicode="&#xe966;" horiz-adv-x="1043" d="M871.331 639.767c0-77.119-62.517-139.636-139.636-139.636s-139.636 62.517-139.636 139.636c0 77.119 62.517 139.636 139.636 139.636s139.636-62.517 139.636-139.636z" />
<glyph unicode="&#xe967;" horiz-adv-x="1043" d="M733.556 822.225h-1.862c-11.171 0-18.618 9.309-18.618 18.618v85.644c0 11.171 9.309 18.618 18.618 18.618h1.862c11.171 0 18.618-9.309 18.618-18.618v-85.644c1.862-9.309-7.447-18.618-18.618-18.618z" />
<glyph unicode="&#xe968;" horiz-adv-x="1043" d="M605.091 770.095v0c-9.309-9.309-22.342-9.309-29.789-1.862l-59.578 59.578c-7.447 7.447-7.447 20.48 0 27.927l1.862 1.862c7.447 7.447 20.48 7.447 27.927 0l59.578-59.578c7.447-9.309 7.447-20.48 0-27.927z" />
<glyph unicode="&#xe969;" horiz-adv-x="1043" d="M549.236 639.767v-1.862c0-11.171-9.309-18.618-18.618-18.618h-85.644c-11.171 0-18.618 9.309-18.618 18.618v1.862c0 11.171 9.309 18.618 18.618 18.618h85.644c11.171 1.862 18.618-7.447 18.618-18.618z" />
<glyph unicode="&#xe96a;" horiz-adv-x="1043" d="M603.229 511.302v0c9.309-9.309 9.309-22.342 1.862-29.789l-59.578-59.578c-7.447-7.447-20.48-7.447-27.927 0l-1.862 1.862c-7.447 7.447-7.447 20.48 0 27.927l59.578 59.578c7.447 7.447 20.48 7.447 27.927 0z" />
<glyph unicode="&#xe96b;" horiz-adv-x="1043" d="M731.695 457.309h1.862c11.171 0 18.618-9.309 18.618-18.618v-85.644c0-11.171-9.309-18.618-18.618-18.618h-1.862c-11.171 0-18.618 9.309-18.618 18.618v85.644c-1.862 9.309 7.447 18.618 18.618 18.618z" />
<glyph unicode="&#xe96c;" horiz-adv-x="1043" d="M860.16 509.44v0c9.309 9.309 22.342 9.309 29.789 1.862l59.578-59.578c7.447-7.447 7.447-20.48 0-27.927l-1.862-1.862c-7.447-7.447-20.48-7.447-27.927 0l-59.578 59.578c-7.447 7.447-7.447 20.48 0 27.927z" />
<glyph unicode="&#xe96d;" horiz-adv-x="1043" d="M916.015 637.905v1.862c0 11.171 9.309 18.618 18.618 18.618h85.644c11.171 0 18.618-9.309 18.618-18.618v-1.862c0-11.171-9.309-18.618-18.618-18.618h-85.644c-11.171 0-18.618 7.447-18.618 18.618z" />
<glyph unicode="&#xe96e;" horiz-adv-x="1043" d="M862.022 768.233v0c-9.309 9.309-9.309 22.342-1.862 29.789l59.578 59.578c7.447 7.447 20.48 7.447 27.927 0l1.862-1.862c7.447-7.447 7.447-20.48 0-27.927l-59.578-59.578c-7.447-7.447-20.48-7.447-27.927 0z" />
<glyph unicode="&#xe96f;" horiz-adv-x="1043" d="M687.011 518.749c0-125.447-101.695-227.142-227.142-227.142s-227.142 101.695-227.142 227.142c0 125.447 101.695 227.142 227.142 227.142s227.142-101.695 227.142-227.142z" />
<glyph unicode="&#xe970;" horiz-adv-x="1043" d="M459.869 351.185c0-125.447-101.695-227.142-227.142-227.142s-227.142 101.695-227.142 227.142c0 125.447 101.695 227.142 227.142 227.142s227.142-101.695 227.142-227.142z" />
<glyph unicode="&#xe971;" horiz-adv-x="1043" d="M869.469 351.185c0-125.447-101.695-227.142-227.142-227.142s-227.142 101.695-227.142 227.142c0 125.447 101.695 227.142 227.142 227.142s227.142-101.695 227.142-227.142z" />
<glyph unicode="&#xe972;" horiz-adv-x="1043" d="M229.004 278.575h402.153v-156.393h-402.153v156.393z" />
<glyph unicode="&#xe973;" horiz-adv-x="1043" d="M608.815 14.196v0c0 9.309 5.585 16.756 14.895 16.756h109.847c7.447 0 14.895-5.585 14.895-14.895v-1.862c0-7.447-5.585-14.895-14.895-14.895h-109.847c-7.447 1.862-14.895 7.447-14.895 14.895z" />
<glyph unicode="&#xe974;" horiz-adv-x="1043" d="M644.189-45.382v0c-7.447 5.585-11.171 13.033-7.447 20.48l55.855 94.953c3.724 7.447 13.033 9.309 20.48 5.585h1.862c7.447-3.724 9.309-13.033 5.585-20.48l-55.855-94.953c-3.724-7.447-13.033-9.309-20.48-5.585z" />
<glyph unicode="&#xe975;" horiz-adv-x="1043" d="M714.938-45.382v0c-7.447-5.585-16.756-1.862-20.48 3.724l-55.855 94.953c-3.724 7.447-1.862 14.895 5.585 20.48h1.862c7.447 3.724 14.895 1.862 20.48-5.585l55.855-94.953c1.862-5.585 0-13.033-7.447-18.618z" />
<glyph unicode="&#xe976;" horiz-adv-x="1043" d="M390.982 14.196v0c0 9.309 5.585 16.756 14.895 16.756h109.847c7.447 0 14.895-5.585 14.895-14.895v-1.862c0-7.447-5.585-14.895-14.895-14.895h-109.847c-9.309 1.862-14.895 7.447-14.895 14.895z" />
<glyph unicode="&#xe977;" horiz-adv-x="1043" d="M426.356-45.382v0c-7.447 5.585-11.171 13.033-7.447 20.48l55.855 94.953c3.724 7.447 13.033 9.309 20.48 5.585h1.862c7.447-3.724 9.309-13.033 5.585-20.48l-55.855-94.953c-5.585-7.447-14.895-9.309-20.48-5.585z" />
<glyph unicode="&#xe978;" horiz-adv-x="1043" d="M495.244-45.382v0c-7.447-5.585-16.756-1.862-20.48 3.724l-55.855 94.953c-3.724 7.447-1.862 14.895 5.585 20.48h1.862c7.447 3.724 14.895 1.862 20.48-5.585l55.855-94.953c1.862-5.585 0-13.033-7.447-18.618z" />
<glyph unicode="&#xe979;" horiz-adv-x="1043" d="M171.287 14.196v0c0 9.309 5.585 16.756 14.895 16.756h109.847c7.447 0 14.895-5.585 14.895-14.895v-1.862c0-7.447-5.585-14.895-14.895-14.895h-109.847c-9.309 1.862-14.895 7.447-14.895 14.895z" />
<glyph unicode="&#xe97a;" horiz-adv-x="1043" d="M206.662-45.382v0c-7.447 5.585-11.171 13.033-7.447 20.48l55.855 94.953c3.724 7.447 13.033 9.309 20.48 5.585h1.862c7.447-3.724 9.309-13.033 5.585-20.48l-55.855-94.953c-5.585-7.447-14.895-9.309-20.48-5.585z" />
<glyph unicode="&#xe97b;" horiz-adv-x="1043" d="M275.549-45.382v0c-7.447-5.585-16.756-1.862-20.48 3.724l-55.855 94.953c-3.724 7.447-1.862 14.895 5.585 20.48h1.862c7.447 3.724 14.895 1.862 20.48-5.585l55.855-94.953c1.862-5.585 0-13.033-7.447-18.618z" />
<glyph unicode="&#xe97c;" horiz-adv-x="1062" d="M883.674 647.111c0-78.547-63.675-142.222-142.222-142.222s-142.222 63.675-142.222 142.222c0 78.547 63.675 142.222 142.222 142.222s142.222-63.675 142.222-142.222z" />
<glyph unicode="&#xe97d;" horiz-adv-x="1062" d="M741.452 832.948h-1.896c-11.378 0-18.963 9.481-18.963 18.963v87.23c0 11.378 9.481 18.963 18.963 18.963h1.896c11.378 0 18.963-9.481 18.963-18.963v-87.23c1.896-9.481-7.585-18.963-18.963-18.963z" />
<glyph unicode="&#xe97e;" horiz-adv-x="1062" d="M610.607 779.852v0c-9.481-9.481-22.756-9.481-30.341-1.896l-60.681 60.681c-7.585 7.585-7.585 20.859 0 28.444l1.896 1.896c7.585 7.585 20.859 7.585 28.444 0l60.681-60.681c7.585-7.585 7.585-20.859 0-28.444z" />
<glyph unicode="&#xe97f;" horiz-adv-x="1062" d="M555.615 649.007v-1.896c0-11.378-9.481-18.963-18.963-18.963h-87.23c-11.378 0-18.963 9.481-18.963 18.963v1.896c0 11.378 9.481 18.963 18.963 18.963h87.23c9.481 0 18.963-9.481 18.963-18.963z" />
<glyph unicode="&#xe980;" horiz-adv-x="1062" d="M608.711 516.267v0c9.481-9.481 9.481-22.756 1.896-30.341l-60.681-60.681c-7.585-7.585-20.859-7.585-28.444 0l-1.896 1.896c-7.585 7.585-7.585 20.859 0 28.444l60.681 60.681c7.585 7.585 20.859 7.585 28.444 0z" />
<glyph unicode="&#xe981;" horiz-adv-x="1062" d="M739.556 461.274h1.896c11.378 0 18.963-9.481 18.963-18.963v-87.23c0-11.378-9.481-18.963-18.963-18.963h-1.896c-11.378 0-18.963 9.481-18.963 18.963v87.23c0 9.481 7.585 18.963 18.963 18.963z" />
<glyph unicode="&#xe982;" horiz-adv-x="1062" d="M872.296 514.37v0c9.481 9.481 22.756 9.481 30.341 1.896l60.681-60.681c7.585-7.585 7.585-20.859 0-28.444l-1.896-1.896c-7.585-7.585-20.859-7.585-28.444 0l-60.681 60.681c-7.585 7.585-7.585 20.859 0 28.444z" />
<glyph unicode="&#xe983;" horiz-adv-x="1062" d="M927.289 645.215v1.896c0 11.378 9.481 18.963 18.963 18.963h87.23c11.378 0 18.963-9.481 18.963-18.963v-1.896c0-11.378-9.481-18.963-18.963-18.963h-87.23c-9.481 0-18.963 9.481-18.963 18.963z" />
<glyph unicode="&#xe984;" horiz-adv-x="1062" d="M874.193 777.956v0c-9.481 9.481-9.481 22.756-1.896 30.341l60.681 60.681c7.585 7.585 20.859 7.585 28.444 0l1.896-1.896c7.585-7.585 7.585-20.859 0-28.444l-60.681-60.681c-9.481-7.585-20.859-7.585-28.444 0z" />
<glyph unicode="&#xe985;" horiz-adv-x="1062" d="M694.044 523.852c0-127.77-103.578-231.348-231.348-231.348s-231.348 103.578-231.348 231.348c0 127.77 103.578 231.348 231.348 231.348s231.348-103.578 231.348-231.348z" />
<glyph unicode="&#xe986;" horiz-adv-x="1062" d="M462.696 353.185c0-127.77-103.578-231.348-231.348-231.348s-231.348 103.578-231.348 231.348c0 127.77 103.578 231.348 231.348 231.348s231.348-103.578 231.348-231.348z" />
<glyph unicode="&#xe987;" horiz-adv-x="1062" d="M879.881 353.185c0-127.77-103.578-231.348-231.348-231.348s-231.348 103.578-231.348 231.348c0 127.77 103.578 231.348 231.348 231.348s231.348-103.578 231.348-231.348z" />
<glyph unicode="&#xe988;" horiz-adv-x="1062" d="M227.556 279.23h409.6v-159.289h-409.6v159.289z" />
<glyph unicode="&#xe989;" horiz-adv-x="1062" d="M290.133-1.422c0-28.444-22.756-49.304-49.304-49.304-28.444 0-49.304 22.756-49.304 49.304 0 28.444 49.304 87.23 49.304 87.23s49.304-60.681 49.304-87.23z" />
<glyph unicode="&#xe98a;" horiz-adv-x="1062" d="M513.896-1.422c0-28.444-22.756-49.304-49.304-49.304-28.444 0-49.304 22.756-49.304 49.304 0 28.444 49.304 87.23 49.304 87.23s49.304-60.681 49.304-87.23z" />
<glyph unicode="&#xe98b;" horiz-adv-x="1062" d="M735.763-1.422c0-28.444-22.756-49.304-49.304-49.304-28.444 0-49.304 22.756-49.304 49.304 0 28.444 49.304 87.23 49.304 87.23s49.304-60.681 49.304-87.23z" />
<glyph unicode="&#xe98c;" glyph-name="weaImg15" horiz-adv-x="847" d="M214.646 223.508v0c0 9.846 5.908 17.723 15.754 17.723h116.185c7.877 0 15.754-5.908 15.754-15.754v-1.969c0-7.877-5.908-15.754-15.754-15.754h-116.185c-7.877 1.969-15.754 7.877-15.754 15.754zM252.062 160.492v0c-7.877 5.908-11.815 13.785-7.877 21.662l59.077 100.431c3.938 7.877 13.785 9.846 21.662 5.908h1.969c7.877-3.938 9.846-13.785 5.908-21.662l-59.077-100.431c-3.938-7.877-13.785-9.846-21.662-5.908zM326.892 162.462v0c-7.877-5.908-17.723-1.969-21.662 3.938l-59.077 100.431c-3.938 7.877-1.969 15.754 5.908 21.662h1.969c7.877 3.938 15.754 1.969 21.662-5.908l59.077-100.431c1.969-7.877-1.969-15.754-7.877-19.692zM214.646 14.769v0c0 9.846 5.908 17.723 15.754 17.723h116.185c7.877 0 15.754-5.908 15.754-15.754v-1.969c0-7.877-5.908-15.754-15.754-15.754h-116.185c-7.877 0-15.754 7.877-15.754 15.754zM252.062-48.246v0c-7.877 5.908-11.815 13.785-7.877 21.662l59.077 100.431c3.938 7.877 13.785 9.846 21.662 5.908h1.969c7.877-3.938 9.846-13.785 5.908-21.662l-59.077-100.431c-3.938-7.877-13.785-9.846-21.662-5.908zM326.892-48.246v0c-7.877-5.908-17.723-1.969-21.662 3.938l-59.077 100.431c-3.938 7.877-1.969 15.754 5.908 21.662h1.969c7.877 3.938 15.754 1.969 21.662-5.908l59.077-100.431c1.969-5.908-1.969-13.785-7.877-19.692zM488.369 223.508v0c0 9.846 5.908 17.723 15.754 17.723h116.185c7.877 0 15.754-5.908 15.754-15.754v-1.969c0-7.877-5.908-15.754-15.754-15.754h-116.185c-9.846 1.969-15.754 7.877-15.754 15.754zM525.785 160.492v0c-7.877 5.908-11.815 13.785-7.877 21.662l59.077 100.431c3.938 7.877 13.785 9.846 21.662 5.908h1.969c7.877-3.938 9.846-13.785 5.908-21.662l-59.077-100.431c-5.908-7.877-15.754-9.846-21.662-5.908zM598.646 162.462v0c-7.877-5.908-17.723-1.969-21.662 3.938l-59.077 100.431c-3.938 7.877-1.969 15.754 5.908 21.662h1.969c7.877 3.938 15.754 1.969 21.662-5.908l59.077-100.431c1.969-7.877 0-15.754-7.877-19.692zM488.369 14.769v0c0 9.846 5.908 17.723 15.754 17.723h116.185c7.877 0 15.754-5.908 15.754-15.754v-1.969c0-7.877-5.908-15.754-15.754-15.754h-116.185c-9.846 0-15.754 7.877-15.754 15.754zM525.785-48.246v0c-7.877 5.908-11.815 13.785-7.877 21.662l59.077 100.431c3.938 7.877 13.785 9.846 21.662 5.908h1.969c7.877-3.938 9.846-13.785 5.908-21.662l-59.077-100.431c-5.908-7.877-15.754-9.846-21.662-5.908zM598.646-48.246v0c-7.877-5.908-17.723-1.969-21.662 3.938l-59.077 100.431c-3.938 7.877-1.969 15.754 5.908 21.662h1.969c7.877 3.938 15.754 1.969 21.662-5.908l59.077-100.431c1.969-5.908 0-13.785-7.877-19.692zM669.538 721.723c0-121.809-98.745-220.554-220.554-220.554s-220.554 98.745-220.554 220.554c0 121.809 98.745 220.554 220.554 220.554s220.554-98.745 220.554-220.554zM448.985 558.277c0-121.809-98.745-220.554-220.554-220.554s-220.554 98.745-220.554 220.554c0 121.809 98.745 220.554 220.554 220.554s220.554-98.745 220.554-220.554zM844.8 558.277c0-121.809-98.745-220.554-220.554-220.554s-220.554 98.745-220.554 220.554c0 121.809 98.745 220.554 220.554 220.554s220.554-98.745 220.554-220.554zM224.492 489.354h389.908v-151.631h-389.908v151.631z" />
<glyph unicode="&#xe98d;" glyph-name="weaImg27" horiz-adv-x="866" d="M145.723 227.446v0c0 9.846 5.908 17.723 15.754 17.723h116.185c7.877 0 15.754-5.908 15.754-15.754v-1.969c0-7.877-5.908-15.754-15.754-15.754h-116.185c-7.877 1.969-15.754 7.877-15.754 15.754zM183.138 164.431v0c-7.877 5.908-11.815 13.785-7.877 21.662l59.077 100.431c3.938 7.877 13.785 9.846 21.662 5.908h1.969c7.877-3.938 9.846-13.785 5.908-21.662l-59.077-100.431c-3.938-7.877-13.785-9.846-21.662-5.908zM257.969 166.4v0c-7.877-5.908-17.723-1.969-21.662 3.938l-59.077 100.431c-3.938 7.877-1.969 15.754 5.908 21.662h1.969c7.877 3.938 15.754 1.969 21.662-5.908l59.077-100.431c1.969-5.908 0-15.754-7.877-19.692zM145.723 18.708v0c0 9.846 5.908 17.723 15.754 17.723h116.185c7.877 0 15.754-5.908 15.754-15.754v-1.969c0-7.877-5.908-15.754-15.754-15.754h-116.185c-7.877 1.969-15.754 7.877-15.754 15.754zM183.138-44.308v0c-7.877 5.908-11.815 13.785-7.877 21.662l59.077 100.431c3.938 7.877 13.785 9.846 21.662 5.908h1.969c7.877-3.938 9.846-13.785 5.908-21.662l-59.077-100.431c-3.938-7.877-13.785-9.846-21.662-5.908zM257.969-42.338v0c-7.877-5.908-17.723-1.969-21.662 3.938l-59.077 100.431c-3.938 7.877-1.969 15.754 5.908 21.662h1.969c7.877 3.938 15.754 1.969 21.662-5.908l59.077-100.431c1.969-5.908 0-15.754-7.877-19.692zM360.369 227.446v0c0 9.846 5.908 17.723 15.754 17.723h116.185c7.877 0 15.754-5.908 15.754-15.754v-1.969c0-7.877-5.908-15.754-15.754-15.754h-118.154c-7.877 1.969-13.785 7.877-13.785 15.754zM397.785 164.431v0c-7.877 5.908-11.815 13.785-7.877 21.662l59.077 100.431c3.938 7.877 13.785 9.846 21.662 5.908h1.969c7.877-3.938 9.846-13.785 5.908-21.662l-59.077-100.431c-5.908-7.877-15.754-9.846-21.662-5.908zM470.646 166.4v0c-7.877-5.908-17.723-1.969-21.662 3.938l-59.077 100.431c-3.938 7.877-1.969 15.754 5.908 21.662h1.969c7.877 3.938 15.754 1.969 21.662-5.908l59.077-100.431c1.969-5.908 0-15.754-7.877-19.692zM360.369 18.708v0c0 9.846 5.908 17.723 15.754 17.723h116.185c7.877 0 15.754-5.908 15.754-15.754v-1.969c0-7.877-5.908-15.754-15.754-15.754h-118.154c-7.877 1.969-13.785 7.877-13.785 15.754zM397.785-44.308v0c-7.877 5.908-11.815 13.785-7.877 21.662l59.077 100.431c3.938 7.877 13.785 9.846 21.662 5.908h1.969c7.877-3.938 9.846-13.785 5.908-21.662l-59.077-100.431c-5.908-7.877-15.754-9.846-21.662-5.908zM470.646-42.338v0c-7.877-5.908-17.723-1.969-21.662 3.938l-59.077 100.431c-3.938 7.877-1.969 15.754 5.908 21.662h1.969c7.877 3.938 15.754 1.969 21.662-5.908l59.077-100.431c1.969-5.908 0-15.754-7.877-19.692zM573.046 227.446v0c0 9.846 5.908 17.723 15.754 17.723h116.185c7.877 0 15.754-5.908 15.754-15.754v-1.969c0-7.877-5.908-15.754-15.754-15.754h-116.185c-9.846 1.969-15.754 7.877-15.754 15.754zM610.462 164.431v0c-7.877 5.908-11.815 13.785-7.877 21.662l59.077 100.431c3.938 7.877 13.785 9.846 21.662 5.908h1.969c7.877-3.938 9.846-13.785 5.908-21.662l-59.077-100.431c-5.908-7.877-13.785-9.846-21.662-5.908zM683.323 166.4v0c-7.877-5.908-17.723-1.969-21.662 3.938l-59.077 100.431c-3.938 7.877-1.969 15.754 5.908 21.662h1.969c7.877 3.938 15.754 1.969 21.662-5.908l59.077-100.431c1.969-5.908 0-15.754-7.877-19.692zM573.046 18.708v0c0 9.846 5.908 17.723 15.754 17.723h116.185c7.877 0 15.754-5.908 15.754-15.754v-1.969c0-7.877-5.908-15.754-15.754-15.754h-116.185c-9.846 1.969-15.754 7.877-15.754 15.754zM610.462-44.308v0c-7.877 5.908-11.815 13.785-7.877 21.662l59.077 100.431c3.938 7.877 13.785 9.846 21.662 5.908h1.969c7.877-3.938 9.846-13.785 5.908-21.662l-59.077-100.431c-5.908-7.877-13.785-9.846-21.662-5.908zM683.323-42.338v0c-7.877-5.908-17.723-1.969-21.662 3.938l-59.077 100.431c-3.938 7.877-1.969 15.754 5.908 21.662h1.969c7.877 3.938 15.754 1.969 21.662-5.908l59.077-100.431c1.969-5.908 0-15.754-7.877-19.692zM675.446 721.723c0-121.809-98.745-220.554-220.554-220.554s-220.554 98.745-220.554 220.554c0 121.809 98.745 220.554 220.554 220.554s220.554-98.745 220.554-220.554zM454.892 558.277c0-121.809-98.745-220.554-220.554-220.554s-220.554 98.745-220.554 220.554c0 121.809 98.745 220.554 220.554 220.554s220.554-98.745 220.554-220.554zM850.708 558.277c0-121.809-98.745-220.554-220.554-220.554s-220.554 98.745-220.554 220.554c0 121.809 98.745 220.554 220.554 220.554s220.554-98.745 220.554-220.554zM230.4 489.354h389.908v-151.631h-389.908v151.631z" />
<glyph unicode="&#xe98e;" glyph-name="weaImg8" horiz-adv-x="847" d="M338.708 213.662c0-29.538-23.631-51.2-51.2-51.2-29.538 0-51.2 23.631-51.2 51.2s51.2 90.585 51.2 90.585c0 0 51.2-63.015 51.2-90.585zM614.4 213.662c0-29.538-23.631-51.2-51.2-51.2s-51.2 23.631-51.2 51.2c0 27.569 51.2 90.585 51.2 90.585s51.2-63.015 51.2-90.585zM340.677 4.923c0-29.538-23.631-51.2-51.2-51.2-29.538 0-51.2 23.631-51.2 51.2 0 29.538 51.2 90.585 51.2 90.585s51.2-63.015 51.2-90.585zM614.4 4.923c0-29.538-23.631-51.2-51.2-51.2-29.538 0-51.2 23.631-51.2 51.2 0 29.538 51.2 90.585 51.2 90.585s51.2-63.015 51.2-90.585zM667.569 723.692c0-121.809-98.745-220.554-220.554-220.554s-220.554 98.745-220.554 220.554c0 121.809 98.745 220.554 220.554 220.554s220.554-98.745 220.554-220.554zM447.015 560.246c0-121.809-98.745-220.554-220.554-220.554s-220.554 98.745-220.554 220.554c0 121.809 98.745 220.554 220.554 220.554s220.554-98.745 220.554-220.554zM842.831 560.246c0-121.809-98.745-220.554-220.554-220.554s-220.554 98.745-220.554 220.554c0 121.809 98.745 220.554 220.554 220.554s220.554-98.745 220.554-220.554zM224.492 491.323h389.908v-151.631h-389.908v151.631z" />
<glyph unicode="&#xe98f;" glyph-name="weaImg22" horiz-adv-x="863" d="M261.020 207.059c0-30.118-24.094-52.204-52.204-52.204-30.118 0-52.204 24.094-52.204 52.204 0 30.118 52.204 92.361 52.204 92.361s52.204-62.243 52.204-92.361zM477.867 207.059c0-30.118-24.094-52.204-52.204-52.204-30.118 0-52.204 24.094-52.204 52.204 0 30.118 52.204 92.361 52.204 92.361s52.204-62.243 52.204-92.361zM696.722 207.059c0-30.118-24.094-52.204-52.204-52.204-30.118 0-52.204 24.094-52.204 52.204 0 30.118 52.204 92.361 52.204 92.361s52.204-62.243 52.204-92.361zM479.875-5.773c0-30.118-24.094-52.204-52.204-52.204-30.118 0-52.204 24.094-52.204 52.204s52.204 92.361 52.204 92.361c0 0 52.204-64.251 52.204-92.361zM696.722-5.773c0-30.118-24.094-52.204-52.204-52.204s-52.204 24.094-52.204 52.204c0 28.11 52.204 92.361 52.204 92.361s52.204-64.251 52.204-92.361zM263.027-5.773c0-30.118-24.094-52.204-52.204-52.204s-52.204 24.094-52.204 52.204c0 28.11 52.204 92.361 52.204 92.361s52.204-64.251 52.204-92.361zM672.627 729.098c0-124.197-100.682-224.878-224.878-224.878s-224.878 100.682-224.878 224.878c0 124.197 100.682 224.878 224.878 224.878s224.878-100.682 224.878-224.878zM449.757 562.447c0-124.197-100.682-224.878-224.878-224.878s-224.878 100.682-224.878 224.878c0 124.197 100.682 224.878 224.878 224.878s224.878-100.682 224.878-224.878zM853.333 562.447c0-124.197-100.682-224.878-224.878-224.878s-224.878 100.682-224.878 224.878c0 124.197 100.682 224.878 224.878 224.878s224.878-100.682 224.878-224.878zM220.863 492.173h397.553v-154.604h-397.553v154.604z" />
</font>
</defs>
</svg>
